<svg viewBox="0 0 24 24" xmlns="http://www.w3.org/2000/svg">
    <path d="M22.934 7.465a8.074 8.074 0 0 0-.511-2.67 5.392 5.392 0 0 0-1.27-1.949 5.392 5.392 0 0 0-1.947-1.269 8.074 8.074 0 0 0-2.67-.51C15.362 1.012 14.987 1 12 1c-2.987 0-3.362.013-4.535.066a8.074 8.074 0 0 0-2.67.511c-.734.276-1.4.71-1.949 1.27a5.392 5.392 0 0 0-1.269 1.947 8.074 8.074 0 0 0-.51 2.67C1.012 8.638 1 9.013 1 12c0 2.987.013 3.362.066 4.535.018.913.191 1.816.511 2.67.277.734.71 1.4 1.27 1.949.549.56 1.214.992 1.948 1.269.854.32 1.757.493 2.67.51C8.638 22.988 9.013 23 12 23s3.362-.013 4.535-.066a8.074 8.074 0 0 0 2.67-.511 5.625 5.625 0 0 0 3.218-3.218c.32-.854.493-1.757.51-2.67.054-1.173.067-1.548.067-4.535s-.013-3.362-.066-4.535zm-1.98 8.98a6.085 6.085 0 0 1-.379 2.042 3.642 3.642 0 0 1-2.088 2.088 6.085 6.085 0 0 1-2.042.379c-1.16.053-1.508.064-4.445.064-2.937 0-3.285-.011-4.445-.064a6.085 6.085 0 0 1-2.042-.379 3.407 3.407 0 0 1-1.265-.823 3.407 3.407 0 0 1-.823-1.265 6.085 6.085 0 0 1-.379-2.042c-.053-1.16-.064-1.508-.064-4.445 0-2.937.011-3.285.064-4.445a6.085 6.085 0 0 1 .379-2.042c.176-.478.457-.91.823-1.265a3.407 3.407 0 0 1 1.265-.823 6.085 6.085 0 0 1 2.042-.379c1.16-.053 1.508-.064 4.445-.064 2.937 0 3.285.011 4.445.064a6.085 6.085 0 0 1 2.042.379c.478.176.91.457 1.265.823.366.355.647.787.823 1.265.243.654.37 1.345.379 2.042.053 1.16.064 1.508.064 4.445 0 2.937-.011 3.285-.064 4.445zM12 6.351a5.649 5.649 0 1 0 0 11.3A5.649 5.649 0 0 0 12 6.35v.001zm0 9.316a3.667 3.667 0 1 1 0-7.334 3.667 3.667 0 0 1 0 7.334zm7.192-9.539a1.32 1.32 0 1 1-2.64 0 1.32 1.32 0 0 1 2.64 0z"/>
</svg>
