<svg viewBox="0 0 24 16" xmlns="http://www.w3.org/2000/svg">
    <g fill="none" fill-rule="evenodd">
        <path d="M23.99 1.385c0-.746-.662-1.35-1.482-1.35H1.488C.667.036.004.64.004 1.386v13.23c0 .746.662 1.35 1.482 1.35h21.07c.82 0 1.482-.604 1.433-1.4V1.385z" fill-rule="nonzero" fill="#4D833F"/>
        <path d="M22.928 14.229c0 .459-.254.757-.507.757H1.57c-.307 0-.507-.379-.507-.757-.01-5.226-.01-8.539 0-9.94.011-1.514-.065-2.502 0-2.757.017-.065.028-.326.168-.39.093-.044.283-.085.57-.123h20.292c.326.044.545.113.658.207.113.095.197.315.252.66l-.074 12.343z" fill="#FFF"/>
        <ellipse fill="#FA9B00" opacity=".887" cx="19.877" cy="10.994" rx="1.963" ry="1.788"/>
        <ellipse fill="#E80000" opacity=".759" cx="17.914" cy="10.994" rx="1.963" ry="1.788"/>
        <rect fill="#D1C162" x="2.209" y="5.006" width="3.485" height="2.101" rx="1.05"/>
        <path fill="#4D833F" d="M.442 2.905h23.121v1.52H.442zm3.846 4.737h17.191a.361.361 0 1 1 0 .723H4.288a.361.361 0 1 1 0-.723zm6.18 1.967h4.88a.358.358 0 0 1 0 .715h-4.88a.358.358 0 0 1 0-.715z"/>
    </g>
</svg>
