<?xml version="1.0" encoding="UTF-8"?>
<svg width="685px" height="185px" viewBox="0 0 685 185" version="1.1" xmlns="http://www.w3.org/2000/svg" xmlns:xlink="http://www.w3.org/1999/xlink">
    <!-- Generator: Sketch 47.1 (45422) - http://www.bohemiancoding.com/sketch -->
    <title>Artboard</title>
    <desc>Created with Sketch.</desc>
    <defs></defs>
    <g id="Page-1" stroke="none" stroke-width="1" fill="none" fill-rule="evenodd">
        <g id="Artboard">
            <g id="recompensas2" transform="translate(22.000000, 45.000000)">
                <ellipse id="Oval-2" fill="#4D833F" fill-rule="nonzero" cx="290.5" cy="33" rx="33.5" ry="33"></ellipse>
                <g id="Page-1" transform="translate(37.000000, 3.000000)" stroke="#4D833F" stroke-width="3.432">
                    <path d="M70.3636364,55.5409251 C70.3636364,58.0043051 68.3203594,60 65.7996073,60 L4.564029,60 C2.04327693,60 0,58.0043051 0,55.5409251 L0,20.7447892 C0,18.2825991 2.04327693,16.2857143 4.564029,16.2857143 L65.7996073,16.2857143 C68.3203594,16.2857143 70.3636364,18.2825991 70.3636364,20.7447892 L70.3636364,55.5409251 Z" id="Stroke-1"></path>
                    <path d="M15.6363636,16.2940095 L15.6363636,4.45966994 C15.6363636,1.9968849 17.6796406,0 20.2003927,0 L81.435971,0 C83.956723,0 86,1.9968849 86,4.45966994 L86,39.2552108 C86,41.7185908 83.956723,43.7142857 81.435971,43.7142857 L70.7475924,43.7142857" id="Stroke-3"></path>
                    <path d="M3.47474747,49.7142857 L18.2424242,49.7142857" id="Stroke-5"></path>
                    <path d="M24.3232323,49.7142857 L39.0909091,49.7142857" id="Stroke-7"></path>
                    <path d="M65.1515152,47.1428571 C65.1515152,50.4564197 62.4293527,53.1428571 59.0704134,53.1428571 C55.7126489,53.1428571 52.989899,50.4564197 52.989899,47.1428571 C52.989899,43.8292946 55.7126489,41.1428571 59.0704134,41.1428571 C62.4293527,41.1428571 65.1515152,43.8292946 65.1515152,47.1428571 Z" id="Stroke-9"></path>
                    <path d="M54.7266719,51.5633759 C53.6194867,52.5441033 52.1434399,53.1428571 50.5220113,53.1428571 C47.0875142,53.1428571 44.3030303,50.4568696 44.3030303,47.1431469 C44.3030303,43.8294243 47.0875142,41.1428571 50.5220113,41.1428571 C52.1434399,41.1428571 53.6200874,41.7416109 54.7272727,42.722918" id="Stroke-11"></path>
                    <path d="M3.47474747,34.2857143 L4.34343434,34.2857143" id="Stroke-13"></path>
                    <path d="M6.08080808,34.2857143 L51.2525253,34.2857143" id="Stroke-15" stroke-dasharray="2.021,3.031"></path>
                    <path d="M52.1212121,34.2857143 L52.989899,34.2857143" id="Stroke-17"></path>
                    <path d="M15.6363636,11.1428571 L86,11.1428571" id="Stroke-19"></path>
                    <path d="M70.3636364,20.5714286 L85.1313131,20.5714286" id="Stroke-21"></path>
                </g>
                <path d="M3.94448612,85.5809129 C2.08754343,85.5809129 1.54138381,84.2489627 1.54138381,82.593361 C1.54138381,80.9253112 2.26959663,79.406639 3.88380172,79.406639 C4.50278262,79.406639 5.04894224,79.5435685 5.58296497,79.7551867 C5.7528813,79.8298755 5.80142882,79.780083 5.86211322,79.6182573 L6.20194587,78.8962656 C6.29904092,78.6721992 6.25049339,78.5975104 6.11698771,78.5352697 C5.32809049,78.1120332 4.55133014,78.0124481 3.82311732,78.0124481 C1.54138381,78.0124481 0,79.8423237 0,82.593361 C0,85.5062241 1.28650932,86.9875519 3.72602228,86.9875519 C4.58774078,86.9875519 5.59510185,86.8630705 6.40827284,86.3651452 C6.52964164,86.2904564 6.57818916,86.2282158 6.46895724,85.9917012 L6.15339835,85.2821577 C6.10485083,85.1576763 6.03202955,85.0580913 5.8135657,85.1576763 C5.27954296,85.3692946 4.67269895,85.5809129 3.94448612,85.5809129 Z M14.916226,82.4564315 C14.916226,85.3319502 13.6782642,86.9875519 11.1780668,86.9875519 C8.75069075,86.9875519 7.52486583,85.4190871 7.52486583,82.5062241 C7.52486583,79.6556017 9.05411276,78 11.2144775,78 C13.6539904,78 14.916226,79.6929461 14.916226,82.4564315 Z M13.3869791,82.5062241 C13.3869791,80.8506224 12.9985989,79.3692946 11.2387512,79.3692946 C9.75805182,79.3692946 9.04197588,80.7634855 9.04197588,82.4439834 C9.04197588,84.3609959 9.55172486,85.6182573 11.2144775,85.6182573 C12.8772301,85.6182573 13.3869791,84.1244813 13.3869791,82.5062241 Z M23.436316,86.5892116 C23.436316,86.813278 23.5212742,86.8506224 23.7033274,86.8506224 L24.5650459,86.8506224 C24.7713729,86.8506224 24.8441941,86.813278 24.8441941,86.5892116 L24.8441941,78.8589212 C24.8441941,78.3485477 24.6621409,78.1244813 24.1402551,78.1244813 L23.6790536,78.1244813 C23.2542628,78.1244813 23.0722096,78.2365145 22.8901564,78.6846473 L21.4580045,82.3195021 L20.7055179,84.2614108 L20.6569704,84.2614108 L19.9044838,82.3319502 L18.4601951,78.6846473 C18.2781418,78.2365145 18.1082255,78.1244813 17.6955716,78.1244813 L17.1979595,78.1244813 C16.6517999,78.1244813 16.4940204,78.373444 16.4940204,78.8838174 L16.4940204,86.5892116 C16.4940204,86.813278 16.5911155,86.8506224 16.7731687,86.8506224 L17.6470241,86.8506224 C17.853351,86.8506224 17.9261723,86.813278 17.9261723,86.5892116 L17.9261723,80.9875519 L17.9989936,80.9875519 L18.6543851,82.6556017 L19.7224306,85.2821577 C19.8802101,85.7053942 20.0015789,85.8298755 20.4020959,85.8298755 L20.9482555,85.8298755 C21.3487726,85.8298755 21.4701414,85.7053942 21.6400577,85.2821577 L22.7202401,82.5311203 L23.3634947,80.8381743 L23.436316,80.8381743 L23.436316,86.5892116 Z M28.1332887,83.526971 L28.1332887,86.5892116 C28.1332887,86.813278 28.0726043,86.8506224 27.8541405,86.8506224 L26.9438744,86.8506224 C26.7618212,86.8506224 26.6647262,86.8008299 26.6647262,86.5892116 L26.6647262,78.8215768 C26.6647262,78.3609959 26.8346425,78.1120332 27.3443915,78.1120332 L30.232969,78.1120332 C31.859311,78.1120332 32.9637671,79.2074689 32.9637671,80.7759336 C32.9637671,81.659751 32.5389763,83.526971 30.1116002,83.526971 L28.1332887,83.526971 Z M31.4345202,80.8755187 C31.4345202,80.3029046 31.143235,79.4813278 29.9416839,79.4813278 L28.1454256,79.4813278 L28.1454256,82.2448133 L29.9659577,82.2448133 C30.9854556,82.2448133 31.4345202,81.6721992 31.4345202,80.8755187 Z M40.1852109,84.0124481 L40.8527394,86.5892116 C40.88915,86.7012448 40.8406025,86.8506224 40.6949599,86.8506224 L39.6147776,86.8506224 C39.4934087,86.8506224 39.3356293,86.8381743 39.2749449,86.6514523 L38.6923746,84.3485477 C38.449637,83.4647303 38.04912,83.2157676 37.1874015,83.2157676 L35.7552496,83.2157676 L35.7552496,86.5892116 C35.7552496,86.813278 35.6945652,86.8506224 35.4761013,86.8506224 L34.5294247,86.8506224 C34.3473715,86.8506224 34.2502764,86.8008299 34.2502764,86.5892116 L34.2502764,78.8215768 C34.2502764,78.3360996 34.4201928,78.1120332 34.9299417,78.1120332 L37.7942455,78.1120332 C39.4205875,78.1120332 40.4764961,79.1327801 40.4764961,80.626556 C40.4764961,81.5975104 39.9667471,82.3692946 39.2263974,82.6804979 L39.2263974,82.7302905 C39.7968308,82.9792531 40.0274315,83.4149378 40.1852109,84.0124481 Z M38.9715229,80.7012448 C38.9715229,80.2033195 38.7409222,79.4813278 37.6486029,79.4813278 L35.7673865,79.4813278 L35.7673865,81.9460581 L37.5636448,81.9460581 C38.5467321,81.9460581 38.9715229,81.3858921 38.9715229,80.7012448 Z M47.1396434,86.6514523 L46.6056207,84.9460581 L43.522853,84.9460581 L42.9888303,86.6390041 C42.9402828,86.7883817 42.8674615,86.8506224 42.6732714,86.8506224 L41.5566784,86.8506224 C41.3867621,86.8506224 41.3382146,86.7261411 41.3867621,86.5892116 L44.0083283,78.7095436 C44.1661077,78.2240664 44.3238871,78.1244813 44.7850886,78.1120332 L45.3069745,78.1120332 C45.8167234,78.1120332 45.962366,78.2240664 46.1201454,78.7095436 L48.7538485,86.5892116 C48.802396,86.7136929 48.7659854,86.8506224 48.596069,86.8506224 L47.479476,86.8506224 C47.3095597,86.8506224 47.2003278,86.8381743 47.1396434,86.6514523 Z M44.5180772,81.5228216 L43.8869594,83.6514523 L46.2172405,83.6514523 L45.5861227,81.560166 L45.0763737,79.7925311 L45.0156893,79.7925311 L44.5180772,81.5228216 Z M56.9583796,85.5809129 C55.1014369,85.5809129 54.5552773,84.2489627 54.5552773,82.593361 C54.5552773,80.9253112 55.2834901,79.406639 56.8976952,79.406639 C57.5166761,79.406639 58.0628357,79.5435685 58.5968585,79.7551867 C58.7667748,79.8298755 58.8153223,79.780083 58.8760067,79.6182573 L59.2158394,78.8962656 C59.3129344,78.6721992 59.2643869,78.5975104 59.1308812,78.5352697 C58.341984,78.1120332 57.5652236,78.0124481 56.8370108,78.0124481 C54.5552773,78.0124481 53.0138935,79.8423237 53.0138935,82.593361 C53.0138935,85.5062241 54.3004028,86.9875519 56.7399158,86.9875519 C57.6016343,86.9875519 58.6089953,86.8630705 59.4221663,86.3651452 C59.5435351,86.2904564 59.5920827,86.2282158 59.4828507,85.9917012 L59.1672918,85.2821577 C59.1187443,85.1576763 59.045923,85.0580913 58.8274592,85.1576763 C58.2934365,85.3692946 57.6865924,85.5809129 56.9583796,85.5809129 Z M67.9301195,82.4564315 C67.9301195,85.3319502 66.6921577,86.9875519 64.1919603,86.9875519 C61.7645842,86.9875519 60.5387593,85.4190871 60.5387593,82.5062241 C60.5387593,79.6556017 62.0680063,78 64.228371,78 C66.6678839,78 67.9301195,79.6929461 67.9301195,82.4564315 Z M66.4008725,82.5062241 C66.4008725,80.8506224 66.0124924,79.3692946 64.2526447,79.3692946 C62.7719453,79.3692946 62.0558694,80.7634855 62.0558694,82.4439834 C62.0558694,84.3609959 62.5656183,85.6182573 64.228371,85.6182573 C65.8911236,85.6182573 66.4008725,84.1244813 66.4008725,82.5062241 Z M71.0128871,80.4024896 L72.032385,82.1825726 L74.4597611,86.3153527 C74.7146356,86.7261411 74.8360044,86.8506224 75.2607952,86.8506224 L75.685586,86.8506224 C76.2317457,86.8506224 76.3895251,86.5767635 76.3895251,86.1037344 L76.3895251,78.3858921 C76.3895251,78.1742739 76.3167038,78.1244813 76.1103768,78.1244813 L75.2122477,78.1244813 C75.0059207,78.1244813 74.9330995,78.1742739 74.9330995,78.3858921 L74.9330995,84.5850622 L74.8845519,84.5850622 L73.8529171,82.7925311 L71.4376779,78.6721992 C71.1828034,78.2489627 71.0614346,78.1244813 70.6366438,78.1244813 L70.211853,78.1244813 C69.6778302,78.1244813 69.5079139,78.3485477 69.5079139,78.8838174 L69.5079139,86.5892116 C69.5079139,86.8008299 69.605009,86.8506224 69.7870622,86.8506224 L70.6851913,86.8506224 C70.9036552,86.8506224 70.9643396,86.813278 70.9643396,86.5892116 L70.9643396,80.4024896 L71.0128871,80.4024896 Z M87.361265,79.2323651 L87.361265,78.373444 C87.361265,78.1991701 87.3248543,78.1369295 87.1428011,78.1369295 L81.0743609,78.1369295 C80.9044446,78.1369295 80.868034,78.1991701 80.868034,78.373444 L80.868034,79.2323651 C80.868034,79.3941909 80.9044446,79.4564315 81.0743609,79.4564315 L83.3318207,79.4564315 L83.3318207,86.5892116 C83.3318207,86.8008299 83.4167788,86.8506224 83.6109689,86.8506224 L84.5576456,86.8506224 C84.7761094,86.8506224 84.8367938,86.813278 84.8367938,86.5892116 L84.8367938,79.4564315 L87.1428011,79.4564315 C87.3127174,79.4564315 87.361265,79.3941909 87.361265,79.2323651 Z M95.068184,78.3983402 C95.068184,78.1742739 95.0439102,78.1369295 94.8254464,78.1369295 L93.8787697,78.1369295 C93.6845796,78.1369295 93.5996215,78.186722 93.5996215,78.3983402 L93.5996215,85.5311203 C93.0291881,85.6431535 92.4466178,85.6556017 92.2038802,85.6556017 C90.29839,85.6556017 89.9221467,84.846473 89.9221467,83.1410788 L89.9221467,78.3983402 C89.9221467,78.1742739 89.8614623,78.1369295 89.6429985,78.1369295 L88.6963218,78.1369295 C88.5142686,78.1369295 88.4171736,78.186722 88.4171736,78.3983402 L88.4293104,83.1161826 C88.4293104,86.0788382 89.4730821,87 92.2038802,87 C92.6893554,87 93.4903896,86.9751037 94.1093705,86.8506224 C94.8375833,86.7012448 95.068184,86.2780083 95.068184,85.6431535 L95.068184,78.3983402 Z M106.039924,79.2323651 C106.039924,79.3941909 105.991376,79.4564315 105.82146,79.4564315 L103.515453,79.4564315 L103.515453,86.5892116 C103.515453,86.813278 103.454768,86.8506224 103.236304,86.8506224 L102.289628,86.8506224 C102.095438,86.8506224 102.01048,86.8008299 102.01048,86.5892116 L102.01048,79.4564315 L99.7530198,79.4564315 C99.5831035,79.4564315 99.5466929,79.3941909 99.5466929,79.2323651 L99.5466929,78.373444 C99.5466929,78.1991701 99.5831035,78.1369295 99.7530198,78.1369295 L105.82146,78.1369295 C106.003513,78.1369295 106.039924,78.1991701 106.039924,78.373444 L106.039924,79.2323651 Z M111.416562,86.6514523 L110.882539,84.9460581 L107.799772,84.9460581 L107.265749,86.6390041 C107.217201,86.7883817 107.14438,86.8506224 106.95019,86.8506224 L105.833597,86.8506224 C105.663681,86.8506224 105.615133,86.7261411 105.663681,86.5892116 L108.285247,78.7095436 C108.443026,78.2240664 108.600806,78.1244813 109.062007,78.1120332 L109.583893,78.1120332 C110.093642,78.1120332 110.239284,78.2240664 110.397064,78.7095436 L113.030767,86.5892116 C113.079314,86.7136929 113.042904,86.8506224 112.872988,86.8506224 L111.756395,86.8506224 C111.586478,86.8506224 111.477246,86.8381743 111.416562,86.6514523 Z M108.794996,81.5228216 L108.163878,83.6514523 L110.494159,83.6514523 L109.863041,81.560166 L109.353292,79.7925311 L109.292608,79.7925311 L108.794996,81.5228216 Z M120.070158,84.0124481 L120.737686,86.5892116 C120.774097,86.7012448 120.725549,86.8506224 120.579907,86.8506224 L119.499724,86.8506224 C119.378355,86.8506224 119.220576,86.8381743 119.159892,86.6514523 L118.577321,84.3485477 C118.334584,83.4647303 117.934067,83.2157676 117.072348,83.2157676 L115.640196,83.2157676 L115.640196,86.5892116 C115.640196,86.813278 115.579512,86.8506224 115.361048,86.8506224 L114.414371,86.8506224 C114.232318,86.8506224 114.135223,86.8008299 114.135223,86.5892116 L114.135223,78.8215768 C114.135223,78.3360996 114.305139,78.1120332 114.814888,78.1120332 L117.679192,78.1120332 C119.305534,78.1120332 120.361443,79.1327801 120.361443,80.626556 C120.361443,81.5975104 119.851694,82.3692946 119.111344,82.6804979 L119.111344,82.7302905 C119.681777,82.9792531 119.912378,83.4149378 120.070158,84.0124481 Z M118.85647,80.7012448 C118.85647,80.2033195 118.625869,79.4813278 117.53355,79.4813278 L115.652333,79.4813278 L115.652333,81.9460581 L117.448591,81.9460581 C118.431679,81.9460581 118.85647,81.3858921 118.85647,80.7012448 Z M123.869001,86.9875519 C126.187145,86.9875519 127.109548,85.6431535 127.109548,83.4522822 C127.109548,81.8838174 127.121685,80.7261411 127.121685,78.3983402 C127.121685,78.1742739 127.048864,78.1369295 126.842537,78.1369295 L125.907997,78.1369295 C125.725944,78.1369295 125.628849,78.1742739 125.628849,78.3983402 L125.640986,83.2904564 C125.640986,84.7717842 125.216195,85.6182573 123.83259,85.6182573 C123.128651,85.6182573 122.400439,85.4190871 121.866416,85.1701245 C121.720773,85.1078838 121.635815,85.1078838 121.575131,85.2448133 L121.211024,86.0414938 C121.113929,86.253112 121.162477,86.2904564 121.283846,86.3651452 C122.048469,86.8381743 123.177199,86.9875519 123.869001,86.9875519 Z M134.852878,86.5643154 L134.852878,85.7925311 C134.852878,85.5684647 134.816467,85.4937759 134.598003,85.4937759 L131.296772,85.4937759 C130.714202,85.4937759 130.459327,85.219917 130.459327,84.6846473 L130.459327,82.8672199 L134.124665,82.8672199 C134.330992,82.8672199 134.367403,82.780083 134.367403,82.5809129 L134.367403,81.8962656 C134.367403,81.6721992 134.330992,81.5975104 134.124665,81.5975104 L130.459327,81.5975104 L130.459327,80.2904564 C130.459327,79.7551867 130.677791,79.4688797 131.296772,79.4688797 L134.525182,79.4688797 C134.731509,79.4688797 134.76792,79.406639 134.76792,79.1950207 L134.76792,78.4107884 C134.76792,78.2116183 134.731509,78.1244813 134.525182,78.1244813 L131.138992,78.1244813 C129.573335,78.1244813 128.978628,79.1950207 128.978628,80.3651452 L128.978628,84.6224066 C128.978628,85.7676349 129.439829,86.8506224 131.138992,86.8506224 L134.598003,86.8506224 C134.80433,86.8506224 134.852878,86.7510373 134.852878,86.5643154 Z M141.989364,79.2323651 C141.989364,79.3941909 141.940816,79.4564315 141.7709,79.4564315 L139.464892,79.4564315 L139.464892,86.5892116 C139.464892,86.813278 139.404208,86.8506224 139.185744,86.8506224 L138.239068,86.8506224 C138.044877,86.8506224 137.959919,86.8008299 137.959919,86.5892116 L137.959919,79.4564315 L135.70246,79.4564315 C135.532543,79.4564315 135.496133,79.3941909 135.496133,79.2323651 L135.496133,78.373444 C135.496133,78.1991701 135.532543,78.1369295 135.70246,78.1369295 L141.7709,78.1369295 C141.952953,78.1369295 141.989364,78.1991701 141.989364,78.373444 L141.989364,79.2323651 Z M147.366002,86.6514523 L146.831979,84.9460581 L143.749211,84.9460581 L143.215188,86.6390041 C143.166641,86.7883817 143.09382,86.8506224 142.89963,86.8506224 L141.783037,86.8506224 C141.61312,86.8506224 141.564573,86.7261411 141.61312,86.5892116 L144.234686,78.7095436 C144.392466,78.2240664 144.550245,78.1244813 145.011447,78.1120332 L145.533333,78.1120332 C146.043082,78.1120332 146.188724,78.2240664 146.346504,78.7095436 L148.980207,86.5892116 C149.028754,86.7136929 148.992344,86.8506224 148.822427,86.8506224 L147.705834,86.8506224 C147.535918,86.8506224 147.426686,86.8381743 147.366002,86.6514523 Z M144.744435,81.5228216 L144.113318,83.6514523 L146.443599,83.6514523 L145.812481,81.560166 L145.302732,79.7925311 L145.242047,79.7925311 L144.744435,81.5228216 Z" id="COMPRA-CON-TU-TARJETA" fill="#4D833F" fill-rule="nonzero"></path>
                <path d="M207.954409,85.3367117 C206.092795,85.3367117 205.545261,84.0112613 205.545261,82.3637387 C205.545261,80.7038288 206.275306,79.1925676 207.893572,79.1925676 C208.51411,79.1925676 209.061643,79.3288288 209.597009,79.5394144 C209.767353,79.6137387 209.816023,79.5641892 209.87686,79.4031532 L210.217547,78.6846847 C210.314887,78.4617117 210.266217,78.3873874 210.132376,78.3254505 C209.341494,77.9042793 208.562779,77.8051802 207.832735,77.8051802 C205.545261,77.8051802 204,79.6261261 204,82.3637387 C204,85.2623874 205.289746,86.7364865 207.735395,86.7364865 C208.599282,86.7364865 209.609177,86.6126126 210.424393,86.1171171 C210.546068,86.0427928 210.594737,85.9808559 210.485231,85.7454955 L210.168878,85.0394144 C210.120208,84.9155405 210.047204,84.8164414 209.82819,84.9155405 C209.292824,85.1261261 208.684454,85.3367117 207.954409,85.3367117 Z M216.83662,86.402027 L216.301253,84.704955 L213.210731,84.704955 L212.675365,86.3896396 C212.626695,86.5382883 212.553691,86.6002252 212.359012,86.6002252 L211.23961,86.6002252 C211.069266,86.6002252 211.020597,86.4763514 211.069266,86.3400901 L213.697427,78.4988739 C213.855604,78.0157658 214.01378,77.9166667 214.476142,77.9042793 L214.99934,77.9042793 C215.510372,77.9042793 215.656381,78.0157658 215.814557,78.4988739 L218.454885,86.3400901 C218.503555,86.463964 218.467053,86.6002252 218.296709,86.6002252 L217.177307,86.6002252 C217.006963,86.6002252 216.897457,86.5878378 216.83662,86.402027 Z M214.208459,81.2984234 L213.575753,83.4166667 L215.911896,83.4166667 L215.279191,81.3355856 L214.768159,79.5765766 L214.707322,79.5765766 L214.208459,81.2984234 Z M222.61614,86.6002252 L220.243495,86.6002252 C219.732464,86.6002252 219.56212,86.3896396 219.56212,85.8941441 L219.56212,78.6227477 C219.56212,78.1396396 219.732464,77.9166667 220.243495,77.9166667 L222.494466,77.9042793 C225.134794,77.9042793 226.351536,79.7004505 226.351536,82.2027027 C226.351536,84.6801802 225.292971,86.6002252 222.61614,86.6002252 Z M224.818442,82.2274775 C224.818442,80.5551802 224.270908,79.2545045 222.372792,79.2545045 L221.058711,79.2545045 L221.058711,85.25 L222.409294,85.25 C224.283076,85.25 224.818442,83.9740991 224.818442,82.2274775 Z M232.982775,86.402027 L232.447409,84.704955 L229.356886,84.704955 L228.82152,86.3896396 C228.772851,86.5382883 228.699846,86.6002252 228.505167,86.6002252 L227.385766,86.6002252 C227.215422,86.6002252 227.166752,86.4763514 227.215422,86.3400901 L229.843583,78.4988739 C230.001759,78.0157658 230.159935,77.9166667 230.622297,77.9042793 L231.145496,77.9042793 C231.656527,77.9042793 231.802536,78.0157658 231.960712,78.4988739 L234.601041,86.3400901 C234.64971,86.463964 234.613208,86.6002252 234.442864,86.6002252 L233.323463,86.6002252 C233.153119,86.6002252 233.043612,86.5878378 232.982775,86.402027 Z M230.354614,81.2984234 L229.721909,83.4166667 L232.058052,83.4166667 L231.425346,81.3355856 L230.914315,79.5765766 L230.853478,79.5765766 L230.354614,81.2984234 Z M241.743312,77.1734234 L241.743312,87.8265766 C241.743312,88 241.682475,88 241.524298,88 L241.305285,88 C241.171443,88 241.098439,88 241.098439,87.8265766 L241.098439,86.6745495 C240.392729,86.6002252 239.662684,86.3896396 239.054314,86.0304054 C238.956974,85.9808559 238.932639,85.8941441 238.993477,85.7454955 C239.017811,85.6711712 239.285494,85.0146396 239.309829,84.9279279 C239.370666,84.8040541 239.443671,84.7916667 239.553177,84.8288288 C240.015539,85.0394144 240.563073,85.2128378 241.098439,85.3119369 L241.098439,82.6114865 C239.942535,82.0912162 239.248992,81.5213964 239.248992,80.4189189 C239.236825,79.3288288 239.857363,78.4740991 241.098439,78.213964 L241.098439,77.1734234 C241.098439,77 241.171443,77 241.305285,77 L241.524298,77 C241.682475,77 241.743312,77 241.743312,77.1734234 Z M242.157004,87.8265766 L242.157004,77.1734234 C242.157004,77 242.230008,77 242.376017,77 L242.570696,77 C242.728872,77 242.789709,77 242.789709,77.1734234 L242.789709,78.1891892 C243.30074,78.2511261 243.848274,78.3997748 244.310635,78.6227477 C244.420142,78.6722973 244.444477,78.7342342 244.395807,78.8704955 L244.103789,79.7004505 C244.05512,79.8490991 244.00645,79.8490991 243.896943,79.8119369 C243.507586,79.6880631 243.118229,79.588964 242.789709,79.527027 L242.789709,81.9177928 C243.872609,82.4009009 244.870336,83.0078829 244.870336,84.3209459 C244.870336,85.7083333 243.994283,86.4515766 242.789709,86.6621622 L242.789709,87.8265766 C242.789709,88 242.728872,88 242.570696,88 L242.376017,88 C242.230008,88 242.157004,88 242.157004,87.8265766 Z M243.531921,84.3457207 C243.531921,83.8997748 243.276405,83.6024775 242.789709,83.3175676 L242.789709,85.3243243 C243.264238,85.1632883 243.531921,84.8040541 243.531921,84.3457207 Z M240.611742,80.3445946 C240.611742,80.6790541 240.757751,80.9268018 241.098439,81.1621622 L241.098439,79.588964 C240.757751,79.7623874 240.611742,80.0472973 240.611742,80.3445946 Z M251.112219,82.1036036 L251.112219,82.1407658 C252.122114,82.4504505 252.560141,83.3423423 252.560141,84.2094595 C252.560141,85.4605856 251.538078,86.7364865 249.433116,86.7364865 C247.364656,86.7364865 246.306091,85.6711712 246.306091,84.2342342 C246.306091,83.3051802 246.914462,82.4256757 247.754013,82.1407658 L247.754013,82.1036036 C246.914462,81.7815315 246.622444,80.9887387 246.622444,80.4808559 C246.622444,78.981982 247.887855,78.1024775 249.445283,78.1024775 C251.173056,78.1024775 252.243788,79.0563063 252.243788,80.3693694 C252.243788,80.8772523 251.927435,81.7443694 251.112219,82.1036036 Z M251.100051,84.1227477 C251.100051,83.2308559 250.357839,82.7477477 249.433116,82.7477477 C248.544895,82.7477477 247.76618,83.2804054 247.76618,84.1599099 C247.76618,84.8412162 248.19204,85.5225225 249.433116,85.5225225 C250.698527,85.5225225 251.100051,84.7668919 251.100051,84.1227477 Z M250.832368,80.5427928 C250.832368,79.8738739 250.370007,79.3536036 249.420948,79.3536036 C248.47189,79.3536036 248.033864,79.9358108 248.033864,80.579955 C248.033864,81.1993243 248.642234,81.6452703 249.420948,81.6452703 C250.175328,81.6452703 250.832368,81.1621622 250.832368,80.5427928 Z M260.590633,86.6002252 L258.217987,86.6002252 C257.706956,86.6002252 257.536612,86.3896396 257.536612,85.8941441 L257.536612,78.6227477 C257.536612,78.1396396 257.706956,77.9166667 258.217987,77.9166667 L260.468958,77.9042793 C263.109287,77.9042793 264.326028,79.7004505 264.326028,82.2027027 C264.326028,84.6801802 263.267463,86.6002252 260.590633,86.6002252 Z M262.792934,82.2274775 C262.792934,80.5551802 262.245401,79.2545045 260.347284,79.2545045 L259.033204,79.2545045 L259.033204,85.25 L260.383787,85.25 C262.257568,85.25 262.792934,83.9740991 262.792934,82.2274775 Z M271.796819,86.3153153 L271.796819,85.5472973 C271.796819,85.3243243 271.760317,85.25 271.541303,85.25 L268.231767,85.25 C267.647731,85.25 267.392216,84.9774775 267.392216,84.4448198 L267.392216,82.6362613 L271.066774,82.6362613 C271.27362,82.6362613 271.310122,82.5495495 271.310122,82.3513514 L271.310122,81.670045 C271.310122,81.4470721 271.27362,81.3727477 271.066774,81.3727477 L267.392216,81.3727477 L267.392216,80.0720721 C267.392216,79.5394144 267.611229,79.2545045 268.231767,79.2545045 L271.468299,79.2545045 C271.675145,79.2545045 271.711647,79.1925676 271.711647,78.981982 L271.711647,78.2015766 C271.711647,78.0033784 271.675145,77.9166667 271.468299,77.9166667 L268.073591,77.9166667 C266.503995,77.9166667 265.907792,78.981982 265.907792,80.1463964 L265.907792,84.3828829 C265.907792,85.5225225 266.370153,86.6002252 268.073591,86.6002252 L271.541303,86.6002252 C271.748149,86.6002252 271.796819,86.5011261 271.796819,86.3153153 Z M280.30184,85.3367117 C278.440226,85.3367117 277.892692,84.0112613 277.892692,82.3637387 C277.892692,80.7038288 278.622737,79.1925676 280.241003,79.1925676 C280.861541,79.1925676 281.409074,79.3288288 281.94444,79.5394144 C282.114784,79.6137387 282.163454,79.5641892 282.224291,79.4031532 L282.564978,78.6846847 C282.662318,78.4617117 282.613648,78.3873874 282.479806,78.3254505 C281.688925,77.9042793 280.91021,77.8051802 280.180166,77.8051802 C277.892692,77.8051802 276.347431,79.6261261 276.347431,82.3637387 C276.347431,85.2623874 277.637177,86.7364865 280.082826,86.7364865 C280.946713,86.7364865 281.956608,86.6126126 282.771824,86.1171171 C282.893498,86.0427928 282.942168,85.9808559 282.832661,85.7454955 L282.516309,85.0394144 C282.467639,84.9155405 282.394635,84.8164414 282.175621,84.9155405 C281.640255,85.1261261 281.031884,85.3367117 280.30184,85.3367117 Z M291.30118,82.2274775 C291.30118,85.088964 290.060104,86.7364865 287.553617,86.7364865 C285.120135,86.7364865 283.891226,85.1756757 283.891226,82.277027 C283.891226,79.4403153 285.42432,77.7927928 287.590119,77.7927928 C290.035769,77.7927928 291.30118,79.4774775 291.30118,82.2274775 Z M289.768086,82.277027 C289.768086,80.6295045 289.378729,79.1554054 287.614454,79.1554054 C286.13003,79.1554054 285.412153,80.5427928 285.412153,82.2150901 C285.412153,84.1227477 285.923184,85.3738739 287.590119,85.3738739 C289.257055,85.3738739 289.768086,83.8873874 289.768086,82.277027 Z M299.842703,86.3400901 C299.842703,86.5630631 299.927875,86.6002252 300.110386,86.6002252 L300.974273,86.6002252 C301.181119,86.6002252 301.254123,86.5630631 301.254123,86.3400901 L301.254123,78.6475225 C301.254123,78.1396396 301.071612,77.9166667 300.548413,77.9166667 L300.086051,77.9166667 C299.660192,77.9166667 299.477681,78.0281532 299.29517,78.4740991 L297.859415,82.0912162 L297.105036,84.0236486 L297.056366,84.0236486 L296.301986,82.1036036 L294.854064,78.4740991 C294.671553,78.0281532 294.501209,77.9166667 294.087517,77.9166667 L293.588654,77.9166667 C293.04112,77.9166667 292.882944,78.1644144 292.882944,78.6722973 L292.882944,86.3400901 C292.882944,86.5630631 292.980283,86.6002252 293.162794,86.6002252 L294.038848,86.6002252 C294.245694,86.6002252 294.318698,86.5630631 294.318698,86.3400901 L294.318698,80.7657658 L294.391703,80.7657658 L295.048743,82.4256757 L296.119475,85.0394144 C296.277652,85.4605856 296.399326,85.5844595 296.80085,85.5844595 L297.348384,85.5844595 C297.749908,85.5844595 297.871582,85.4605856 298.041926,85.0394144 L299.124826,82.3018018 L299.769699,80.6171171 L299.842703,80.6171171 L299.842703,86.3400901 Z M304.551492,83.2927928 L304.551492,86.3400901 C304.551492,86.5630631 304.490655,86.6002252 304.271641,86.6002252 L303.359085,86.6002252 C303.176574,86.6002252 303.079235,86.5506757 303.079235,86.3400901 L303.079235,78.6103604 C303.079235,78.152027 303.249579,77.9042793 303.76061,77.9042793 L306.656454,77.9042793 C308.286887,77.9042793 309.394122,78.9943694 309.394122,80.5551802 C309.394122,81.4346847 308.968262,83.2927928 306.53478,83.2927928 L304.551492,83.2927928 Z M307.861028,80.6542793 C307.861028,80.0844595 307.56901,79.2668919 306.364436,79.2668919 L304.563659,79.2668919 L304.563659,82.0168919 L306.388771,82.0168919 C307.410833,82.0168919 307.861028,81.4470721 307.861028,80.6542793 Z M316.633732,83.7759009 L317.302939,86.3400901 C317.339441,86.4515766 317.290772,86.6002252 317.144763,86.6002252 L316.061863,86.6002252 C315.940189,86.6002252 315.782013,86.5878378 315.721176,86.402027 L315.13714,84.1103604 C314.893792,83.2308559 314.492267,82.9831081 313.628381,82.9831081 L312.192626,82.9831081 L312.192626,86.3400901 C312.192626,86.5630631 312.131789,86.6002252 311.912776,86.6002252 L310.963718,86.6002252 C310.781206,86.6002252 310.683867,86.5506757 310.683867,86.3400901 L310.683867,78.6103604 C310.683867,78.1272523 310.854211,77.9042793 311.365242,77.9042793 L314.236751,77.9042793 C315.867185,77.9042793 316.925749,78.920045 316.925749,80.4065315 C316.925749,81.3727477 316.414718,82.1407658 315.672506,82.4504505 L315.672506,82.5 C316.244374,82.7477477 316.475555,83.1813063 316.633732,83.7759009 Z M315.41699,80.4808559 C315.41699,79.9853604 315.18581,79.2668919 314.090743,79.2668919 L312.204794,79.2668919 L312.204794,81.7195946 L314.005571,81.7195946 C314.991131,81.7195946 315.41699,81.1621622 315.41699,80.4808559 Z M323.605659,86.402027 L323.070292,84.704955 L319.97977,84.704955 L319.444404,86.3896396 C319.395734,86.5382883 319.32273,86.6002252 319.128051,86.6002252 L318.008649,86.6002252 C317.838305,86.6002252 317.789636,86.4763514 317.838305,86.3400901 L320.466466,78.4988739 C320.624643,78.0157658 320.782819,77.9166667 321.245181,77.9042793 L321.768379,77.9042793 C322.279411,77.9042793 322.42542,78.0157658 322.583596,78.4988739 L325.223924,86.3400901 C325.272594,86.463964 325.236092,86.6002252 325.065748,86.6002252 L323.946346,86.6002252 C323.776002,86.6002252 323.666496,86.5878378 323.605659,86.402027 Z M320.977498,81.2984234 L320.344792,83.4166667 L322.680935,83.4166667 L322.04823,81.3355856 L321.537199,79.5765766 L321.476362,79.5765766 L320.977498,81.2984234 Z M335.687899,83.7759009 L336.357106,86.3400901 C336.393608,86.4515766 336.344939,86.6002252 336.19893,86.6002252 L335.11603,86.6002252 C334.994356,86.6002252 334.83618,86.5878378 334.775343,86.402027 L334.191307,84.1103604 C333.947959,83.2308559 333.546434,82.9831081 332.682548,82.9831081 L331.246793,82.9831081 L331.246793,86.3400901 C331.246793,86.5630631 331.185956,86.6002252 330.966943,86.6002252 L330.017885,86.6002252 C329.835373,86.6002252 329.738034,86.5506757 329.738034,86.3400901 L329.738034,78.6103604 C329.738034,78.1272523 329.908378,77.9042793 330.419409,77.9042793 L333.290918,77.9042793 C334.921352,77.9042793 335.979916,78.920045 335.979916,80.4065315 C335.979916,81.3727477 335.468885,82.1407658 334.726673,82.4504505 L334.726673,82.5 C335.298541,82.7477477 335.529722,83.1813063 335.687899,83.7759009 Z M334.471157,80.4808559 C334.471157,79.9853604 334.239977,79.2668919 333.144909,79.2668919 L331.258961,79.2668919 L331.258961,81.7195946 L333.059738,81.7195946 C334.045298,81.7195946 334.471157,81.1621622 334.471157,80.4808559 Z M343.499377,86.3153153 L343.499377,85.5472973 C343.499377,85.3243243 343.462875,85.25 343.243861,85.25 L339.934325,85.25 C339.35029,85.25 339.094774,84.9774775 339.094774,84.4448198 L339.094774,82.6362613 L342.769332,82.6362613 C342.976178,82.6362613 343.01268,82.5495495 343.01268,82.3513514 L343.01268,81.670045 C343.01268,81.4470721 342.976178,81.3727477 342.769332,81.3727477 L339.094774,81.3727477 L339.094774,80.0720721 C339.094774,79.5394144 339.313787,79.2545045 339.934325,79.2545045 L343.170857,79.2545045 C343.377703,79.2545045 343.414205,79.1925676 343.414205,78.981982 L343.414205,78.2015766 C343.414205,78.0033784 343.377703,77.9166667 343.170857,77.9166667 L339.776149,77.9166667 C338.206553,77.9166667 337.61035,78.981982 337.61035,80.1463964 L337.61035,84.3828829 C337.61035,85.5225225 338.072711,86.6002252 339.776149,86.6002252 L343.243861,86.6002252 C343.450707,86.6002252 343.499377,86.5011261 343.499377,86.3153153 Z M348.597523,85.3367117 C346.735909,85.3367117 346.188375,84.0112613 346.188375,82.3637387 C346.188375,80.7038288 346.91842,79.1925676 348.536685,79.1925676 C349.157223,79.1925676 349.704757,79.3288288 350.240123,79.5394144 C350.410467,79.6137387 350.459137,79.5641892 350.519974,79.4031532 L350.860661,78.6846847 C350.958,78.4617117 350.909331,78.3873874 350.775489,78.3254505 C349.984607,77.9042793 349.205893,77.8051802 348.475848,77.8051802 C346.188375,77.8051802 344.643114,79.6261261 344.643114,82.3637387 C344.643114,85.2623874 345.932859,86.7364865 348.378509,86.7364865 C349.242395,86.7364865 350.252291,86.6126126 351.067507,86.1171171 C351.189181,86.0427928 351.237851,85.9808559 351.128344,85.7454955 L350.811991,85.0394144 C350.763322,84.9155405 350.690317,84.8164414 350.471304,84.9155405 C349.935938,85.1261261 349.327567,85.3367117 348.597523,85.3367117 Z M354.072858,86.3400901 L354.072858,78.1891892 C354.072858,77.9662162 353.999853,77.9290541 353.78084,77.9290541 L352.856117,77.9290541 C352.661438,77.9290541 352.576266,77.9786036 352.576266,78.1891892 L352.576266,86.3400901 C352.576266,86.5506757 352.661438,86.6002252 352.856117,86.6002252 L353.78084,86.6002252 C353.999853,86.6002252 354.072858,86.5630631 354.072858,86.3400901 Z M361.202961,81.7567568 L361.202961,81.8434685 C362.127685,82.2027027 362.529209,83.106982 362.529209,83.9864865 C362.529209,85.5472973 361.263798,86.6002252 359.682035,86.6002252 L356.713186,86.6002252 C356.202155,86.6002252 356.031811,86.3896396 356.031811,85.8941441 L356.031811,78.6227477 C356.031811,78.1396396 356.202155,77.9166667 356.713186,77.9166667 L359.536026,77.9042793 C361.044785,77.9042793 362.164187,78.5236486 362.164187,80.0596847 C362.164187,80.7905405 361.750495,81.4470721 361.202961,81.7567568 Z M360.996115,83.8873874 C360.996115,83.0945946 360.485084,82.5371622 359.536026,82.5371622 L357.516235,82.5371622 L357.516235,85.2376126 L359.523858,85.2376126 C360.679763,85.2376126 360.996115,84.4572072 360.996115,83.8873874 Z M357.516235,79.2545045 L357.516235,81.286036 L359.487356,81.286036 C359.949718,81.286036 360.618925,81.1002252 360.618925,80.2207207 C360.618925,79.6261261 360.205233,79.2545045 359.560361,79.2545045 L357.516235,79.2545045 Z M370,86.3153153 L370,85.5472973 C370,85.3243243 369.963498,85.25 369.744484,85.25 L366.434948,85.25 C365.850913,85.25 365.595397,84.9774775 365.595397,84.4448198 L365.595397,82.6362613 L369.269955,82.6362613 C369.476801,82.6362613 369.513304,82.5495495 369.513304,82.3513514 L369.513304,81.670045 C369.513304,81.4470721 369.476801,81.3727477 369.269955,81.3727477 L365.595397,81.3727477 L365.595397,80.0720721 C365.595397,79.5394144 365.81441,79.2545045 366.434948,79.2545045 L369.67148,79.2545045 C369.878326,79.2545045 369.914828,79.1925676 369.914828,78.981982 L369.914828,78.2015766 C369.914828,78.0033784 369.878326,77.9166667 369.67148,77.9166667 L366.276772,77.9166667 C364.707176,77.9166667 364.110973,78.981982 364.110973,80.1463964 L364.110973,84.3828829 C364.110973,85.5225225 364.573334,86.6002252 366.276772,86.6002252 L369.744484,86.6002252 C369.95133,86.6002252 370,86.5011261 370,86.3153153 Z" id="CADA-$8-DE-COMPRA-RECIBE" fill="#4D833F" fill-rule="nonzero"></path>
                <path d="M432.859564,86.5649171 L432.859564,85.7941989 C432.859564,85.570442 432.823245,85.4958564 432.605327,85.4958564 L429.312349,85.4958564 C428.731235,85.4958564 428.476998,85.2223757 428.476998,84.6878453 L428.476998,82.8729282 L432.133172,82.8729282 C432.338983,82.8729282 432.375303,82.7859116 432.375303,82.5870166 L432.375303,81.9033149 C432.375303,81.679558 432.338983,81.6049724 432.133172,81.6049724 L428.476998,81.6049724 L428.476998,80.2997238 C428.476998,79.7651934 428.694915,79.4792818 429.312349,79.4792818 L432.532688,79.4792818 C432.738499,79.4792818 432.774818,79.4171271 432.774818,79.2058011 L432.774818,78.4226519 C432.774818,78.2237569 432.738499,78.1367403 432.532688,78.1367403 L429.154964,78.1367403 C427.59322,78.1367403 427,79.2058011 427,80.3743094 L427,84.6256906 C427,85.769337 427.460048,86.8508287 429.154964,86.8508287 L432.605327,86.8508287 C432.811138,86.8508287 432.859564,86.7513812 432.859564,86.5649171 Z M434.239709,84.6256906 C434.239709,85.769337 434.699758,86.8508287 436.37046,86.8508287 L439.845036,86.8508287 C440.014528,86.8508287 440.050847,86.7762431 440.050847,86.6146409 L440.050847,85.7444751 C440.050847,85.570442 440.026634,85.5082873 439.845036,85.5082873 L436.600484,85.5082873 C436.05569,85.5082873 435.716707,85.2720994 435.716707,84.6256906 L435.716707,78.3977901 C435.716707,78.1740331 435.656174,78.1367403 435.42615,78.1367403 L434.51816,78.1367403 C434.324455,78.1367403 434.239709,78.1864641 434.239709,78.3977901 L434.239709,84.6256906 Z M447.520581,86.8508287 L445.159806,86.8508287 C444.651332,86.8508287 444.48184,86.6395028 444.48184,86.1422652 L444.48184,78.8453039 C444.48184,78.3604972 444.651332,78.1367403 445.159806,78.1367403 L447.399516,78.1243094 C450.026634,78.1243094 451.237288,79.9267956 451.237288,82.4378453 C451.237288,84.9240331 450.184019,86.8508287 447.520581,86.8508287 Z M449.711864,82.4627072 C449.711864,80.7845304 449.16707,79.4792818 447.27845,79.4792818 L445.970944,79.4792818 L445.970944,85.4958564 L447.31477,85.4958564 C449.179177,85.4958564 449.711864,84.2154696 449.711864,82.4627072 Z M459.941889,82.4627072 C459.941889,85.3342541 458.707022,86.9875691 456.213075,86.9875691 C453.791768,86.9875691 452.569007,85.4212707 452.569007,82.5124309 C452.569007,79.6657459 454.094431,78.0124309 456.249395,78.0124309 C458.682809,78.0124309 459.941889,79.7030387 459.941889,82.4627072 Z M458.416465,82.5124309 C458.416465,80.859116 458.029056,79.3798343 456.273608,79.3798343 C454.79661,79.3798343 454.082324,80.7720994 454.082324,82.4502762 C454.082324,84.3646409 454.590799,85.6201657 456.249395,85.6201657 C457.90799,85.6201657 458.416465,84.128453 458.416465,82.5124309 Z M466.661017,81.9903315 L466.661017,82.0773481 C467.581114,82.4378453 467.98063,83.3453039 467.98063,84.2279006 C467.98063,85.7941989 466.72155,86.8508287 465.1477,86.8508287 L462.193705,86.8508287 C461.68523,86.8508287 461.515738,86.6395028 461.515738,86.1422652 L461.515738,78.8453039 C461.515738,78.3604972 461.68523,78.1367403 462.193705,78.1367403 L465.002421,78.1243094 C466.503632,78.1243094 467.617433,78.7458564 467.617433,80.2872928 C467.617433,81.0207182 467.205811,81.679558 466.661017,81.9903315 Z M466.455206,84.128453 C466.455206,83.3328729 465.946731,82.7734807 465.002421,82.7734807 L462.992736,82.7734807 L462.992736,85.4834254 L464.990315,85.4834254 C466.140436,85.4834254 466.455206,84.7002762 466.455206,84.128453 Z M462.992736,79.4792818 L462.992736,81.5179558 L464.953995,81.5179558 C465.414044,81.5179558 466.079903,81.3314917 466.079903,80.448895 C466.079903,79.8522099 465.668281,79.4792818 465.026634,79.4792818 L462.992736,79.4792818 Z M469.554479,84.6256906 C469.554479,85.769337 470.014528,86.8508287 471.68523,86.8508287 L475.159806,86.8508287 C475.329298,86.8508287 475.365617,86.7762431 475.365617,86.6146409 L475.365617,85.7444751 C475.365617,85.570442 475.341404,85.5082873 475.159806,85.5082873 L471.915254,85.5082873 C471.37046,85.5082873 471.031477,85.2720994 471.031477,84.6256906 L471.031477,78.3977901 C471.031477,78.1740331 470.970944,78.1367403 470.74092,78.1367403 L469.83293,78.1367403 C469.639225,78.1367403 469.554479,78.1864641 469.554479,78.3977901 L469.554479,84.6256906 Z M482.266344,86.5649171 L482.266344,85.7941989 C482.266344,85.570442 482.230024,85.4958564 482.012107,85.4958564 L478.719128,85.4958564 C478.138015,85.4958564 477.883777,85.2223757 477.883777,84.6878453 L477.883777,82.8729282 L481.539952,82.8729282 C481.745763,82.8729282 481.782082,82.7859116 481.782082,82.5870166 L481.782082,81.9033149 C481.782082,81.679558 481.745763,81.6049724 481.539952,81.6049724 L477.883777,81.6049724 L477.883777,80.2997238 C477.883777,79.7651934 478.101695,79.4792818 478.719128,79.4792818 L481.939467,79.4792818 C482.145278,79.4792818 482.181598,79.4171271 482.181598,79.2058011 L482.181598,78.4226519 C482.181598,78.2237569 482.145278,78.1367403 481.939467,78.1367403 L478.561743,78.1367403 C477,78.1367403 476.40678,79.2058011 476.40678,80.3743094 L476.40678,84.6256906 C476.40678,85.769337 476.866828,86.8508287 478.561743,86.8508287 L482.012107,86.8508287 C482.217918,86.8508287 482.266344,86.7513812 482.266344,86.5649171 Z M490.075061,86.8508287 L487.714286,86.8508287 C487.205811,86.8508287 487.03632,86.6395028 487.03632,86.1422652 L487.03632,78.8453039 C487.03632,78.3604972 487.205811,78.1367403 487.714286,78.1367403 L489.953995,78.1243094 C492.581114,78.1243094 493.791768,79.9267956 493.791768,82.4378453 C493.791768,84.9240331 492.738499,86.8508287 490.075061,86.8508287 Z M492.266344,82.4627072 C492.266344,80.7845304 491.72155,79.4792818 489.83293,79.4792818 L488.525424,79.4792818 L488.525424,85.4958564 L489.869249,85.4958564 C491.733656,85.4958564 492.266344,84.2154696 492.266344,82.4627072 Z M501.225182,86.5649171 L501.225182,85.7941989 C501.225182,85.570442 501.188862,85.4958564 500.970944,85.4958564 L497.677966,85.4958564 C497.096852,85.4958564 496.842615,85.2223757 496.842615,84.6878453 L496.842615,82.8729282 L500.498789,82.8729282 C500.7046,82.8729282 500.74092,82.7859116 500.74092,82.5870166 L500.74092,81.9033149 C500.74092,81.679558 500.7046,81.6049724 500.498789,81.6049724 L496.842615,81.6049724 L496.842615,80.2997238 C496.842615,79.7651934 497.060533,79.4792818 497.677966,79.4792818 L500.898305,79.4792818 C501.104116,79.4792818 501.140436,79.4171271 501.140436,79.2058011 L501.140436,78.4226519 C501.140436,78.2237569 501.104116,78.1367403 500.898305,78.1367403 L497.520581,78.1367403 C495.958838,78.1367403 495.365617,79.2058011 495.365617,80.3743094 L495.365617,84.6256906 C495.365617,85.769337 495.825666,86.8508287 497.520581,86.8508287 L500.970944,86.8508287 C501.176755,86.8508287 501.225182,86.7513812 501.225182,86.5649171 Z M507.460048,83.531768 L507.460048,86.589779 C507.460048,86.8135359 507.399516,86.8508287 507.181598,86.8508287 L506.273608,86.8508287 C506.09201,86.8508287 505.995157,86.801105 505.995157,86.589779 L505.995157,78.8328729 C505.995157,78.3729282 506.164649,78.1243094 506.673123,78.1243094 L509.554479,78.1243094 C511.176755,78.1243094 512.27845,79.218232 512.27845,80.7845304 C512.27845,81.6671271 511.854722,83.531768 509.433414,83.531768 L507.460048,83.531768 Z M510.753027,80.8839779 C510.753027,80.3121547 510.46247,79.4917127 509.263923,79.4917127 L507.472155,79.4917127 L507.472155,82.2513812 L509.288136,82.2513812 C510.305085,82.2513812 510.753027,81.679558 510.753027,80.8839779 Z M520.184019,78.410221 C520.184019,78.1864641 520.159806,78.1491713 519.941889,78.1491713 L518.997579,78.1491713 C518.803874,78.1491713 518.719128,78.198895 518.719128,78.410221 L518.719128,85.5331492 C518.150121,85.6450276 517.569007,85.6574586 517.326877,85.6574586 C515.42615,85.6574586 515.050847,84.8494475 515.050847,83.1464088 L515.050847,78.410221 C515.050847,78.1864641 514.990315,78.1491713 514.772397,78.1491713 L513.828087,78.1491713 C513.646489,78.1491713 513.549637,78.198895 513.549637,78.410221 L513.561743,83.121547 C513.561743,86.0801105 514.602906,87 517.326877,87 C517.811138,87 518.610169,86.9751381 519.227603,86.8508287 C519.953995,86.7016575 520.184019,86.2790055 520.184019,85.6450276 L520.184019,78.410221 Z M523.501211,80.4116022 L524.51816,82.1892265 L526.939467,86.3162983 C527.193705,86.7265193 527.31477,86.8508287 527.738499,86.8508287 L528.162228,86.8508287 C528.707022,86.8508287 528.864407,86.5773481 528.864407,86.1049724 L528.864407,78.3977901 C528.864407,78.1864641 528.791768,78.1367403 528.585956,78.1367403 L527.690073,78.1367403 C527.484262,78.1367403 527.411622,78.1864641 527.411622,78.3977901 L527.411622,84.5883978 L527.363196,84.5883978 L526.33414,82.7983425 L523.924939,78.6837017 C523.670702,78.2610497 523.549637,78.1367403 523.125908,78.1367403 L522.702179,78.1367403 C522.169492,78.1367403 522,78.3604972 522,78.8950276 L522,86.589779 C522,86.801105 522.096852,86.8508287 522.27845,86.8508287 L523.174334,86.8508287 C523.392252,86.8508287 523.452785,86.8135359 523.452785,86.589779 L523.452785,80.4116022 L523.501211,80.4116022 Z M536.418886,79.2430939 L536.418886,78.3853591 C536.418886,78.211326 536.382567,78.1491713 536.200969,78.1491713 L530.1477,78.1491713 C529.978208,78.1491713 529.941889,78.211326 529.941889,78.3853591 L529.941889,79.2430939 C529.941889,79.4046961 529.978208,79.4668508 530.1477,79.4668508 L532.399516,79.4668508 L532.399516,86.589779 C532.399516,86.801105 532.484262,86.8508287 532.677966,86.8508287 L533.622276,86.8508287 C533.840194,86.8508287 533.900726,86.8135359 533.900726,86.589779 L533.900726,79.4668508 L536.200969,79.4668508 C536.37046,79.4668508 536.418886,79.4046961 536.418886,79.2430939 Z M544.372881,82.4627072 C544.372881,85.3342541 543.138015,86.9875691 540.644068,86.9875691 C538.22276,86.9875691 537,85.4212707 537,82.5124309 C537,79.6657459 538.525424,78.0124309 540.680387,78.0124309 C543.113801,78.0124309 544.372881,79.7030387 544.372881,82.4627072 Z M542.847458,82.5124309 C542.847458,80.859116 542.460048,79.3798343 540.7046,79.3798343 C539.227603,79.3798343 538.513317,80.7720994 538.513317,82.4502762 C538.513317,84.3646409 539.021792,85.6201657 540.680387,85.6201657 C542.338983,85.6201657 542.847458,84.128453 542.847458,82.5124309 Z M545.789346,80.3743094 C545.789346,81.679558 546.806295,82.3135359 548.561743,83.0096685 C549.711864,83.4696133 550.232446,83.8052486 550.232446,84.4889503 C550.232446,85.1353591 549.772397,85.6201657 548.549637,85.6201657 C547.786925,85.6201657 546.915254,85.371547 546.140436,85.0359116 C546.007264,84.9861878 545.934625,85.0110497 545.874092,85.1477901 L545.510896,85.9930939 C545.438257,86.1546961 545.474576,86.2417127 545.583535,86.2914365 C546.527845,86.8259669 547.726392,86.9875691 548.731235,86.9875691 C550.450363,86.9875691 551.769976,86.179558 551.769976,84.4516575 C551.769976,82.8729282 550.547215,82.301105 549.154964,81.7168508 C547.847458,81.1698895 547.302663,80.871547 547.302663,80.2624309 C547.302663,79.7776243 547.66586,79.3674033 548.501211,79.3674033 C549.154964,79.3674033 549.966102,79.5165746 550.765133,79.7900552 C550.886199,79.8273481 550.934625,79.8273481 550.995157,79.6533149 L551.285714,78.808011 C551.346247,78.6464088 551.322034,78.5966851 551.188862,78.5220994 C550.46247,78.1864641 549.384988,78 548.525424,78 C546.68523,78 545.789346,78.9944751 545.789346,80.3743094 Z M562.35109,84.0165746 L563.016949,86.589779 C563.053269,86.7016575 563.004843,86.8508287 562.859564,86.8508287 L561.782082,86.8508287 C561.661017,86.8508287 561.503632,86.8383978 561.443099,86.6519337 L560.861985,84.3522099 C560.619855,83.4696133 560.220339,83.2209945 559.360775,83.2209945 L557.932203,83.2209945 L557.932203,86.589779 C557.932203,86.8135359 557.871671,86.8508287 557.653753,86.8508287 L556.709443,86.8508287 C556.527845,86.8508287 556.430993,86.801105 556.430993,86.589779 L556.430993,78.8328729 C556.430993,78.3480663 556.600484,78.1243094 557.108959,78.1243094 L559.966102,78.1243094 C561.588378,78.1243094 562.641646,79.1436464 562.641646,80.6353591 C562.641646,81.6049724 562.133172,82.3756906 561.394673,82.6864641 L561.394673,82.7361878 C561.96368,82.9848066 562.193705,83.4198895 562.35109,84.0165746 Z M561.140436,80.7099448 C561.140436,80.2127072 560.910412,79.4917127 559.820823,79.4917127 L557.94431,79.4917127 L557.94431,81.9530387 L559.736077,81.9530387 C560.716707,81.9530387 561.140436,81.3936464 561.140436,80.7099448 Z M570.123487,86.5649171 L570.123487,85.7941989 C570.123487,85.570442 570.087167,85.4958564 569.869249,85.4958564 L566.576271,85.4958564 C565.995157,85.4958564 565.74092,85.2223757 565.74092,84.6878453 L565.74092,82.8729282 L569.397094,82.8729282 C569.602906,82.8729282 569.639225,82.7859116 569.639225,82.5870166 L569.639225,81.9033149 C569.639225,81.679558 569.602906,81.6049724 569.397094,81.6049724 L565.74092,81.6049724 L565.74092,80.2997238 C565.74092,79.7651934 565.958838,79.4792818 566.576271,79.4792818 L569.79661,79.4792818 C570.002421,79.4792818 570.038741,79.4171271 570.038741,79.2058011 L570.038741,78.4226519 C570.038741,78.2237569 570.002421,78.1367403 569.79661,78.1367403 L566.418886,78.1367403 C564.857143,78.1367403 564.263923,79.2058011 564.263923,80.3743094 L564.263923,84.6256906 C564.263923,85.769337 564.723971,86.8508287 566.418886,86.8508287 L569.869249,86.8508287 C570.075061,86.8508287 570.123487,86.7513812 570.123487,86.5649171 Z M575.196126,85.5828729 C573.343826,85.5828729 572.799031,84.2527624 572.799031,82.5994475 C572.799031,80.9337017 573.525424,79.4171271 575.135593,79.4171271 C575.753027,79.4171271 576.297821,79.5538674 576.830508,79.7651934 C577,79.839779 577.048426,79.7900552 577.108959,79.628453 L577.447942,78.9074586 C577.544794,78.6837017 577.496368,78.609116 577.363196,78.5469613 C576.576271,78.1243094 575.801453,78.0248619 575.075061,78.0248619 C572.799031,78.0248619 571.261501,79.8522099 571.261501,82.5994475 C571.261501,85.5082873 572.544794,86.9875691 574.978208,86.9875691 C575.837772,86.9875691 576.842615,86.8632597 577.653753,86.3660221 C577.774818,86.2914365 577.823245,86.2292818 577.714286,85.9930939 L577.399516,85.2845304 C577.35109,85.160221 577.27845,85.0607735 577.060533,85.160221 C576.527845,85.371547 575.922518,85.5828729 575.196126,85.5828729 Z M586.140436,82.4627072 C586.140436,85.3342541 584.905569,86.9875691 582.411622,86.9875691 C579.990315,86.9875691 578.767554,85.4212707 578.767554,82.5124309 C578.767554,79.6657459 580.292978,78.0124309 582.447942,78.0124309 C584.881356,78.0124309 586.140436,79.7030387 586.140436,82.4627072 Z M584.615012,82.5124309 C584.615012,80.859116 584.227603,79.3798343 582.472155,79.3798343 C580.995157,79.3798343 580.280872,80.7720994 580.280872,82.4502762 C580.280872,84.3646409 580.789346,85.6201657 582.447942,85.6201657 C584.106538,85.6201657 584.615012,84.128453 584.615012,82.5124309 Z M594.639225,86.589779 C594.639225,86.8135359 594.723971,86.8508287 594.905569,86.8508287 L595.765133,86.8508287 C595.970944,86.8508287 596.043584,86.8135359 596.043584,86.589779 L596.043584,78.8701657 C596.043584,78.3604972 595.861985,78.1367403 595.341404,78.1367403 L594.881356,78.1367403 C594.457627,78.1367403 594.276029,78.2486188 594.094431,78.6961326 L592.66586,82.3259669 L591.915254,84.2651934 L591.866828,84.2651934 L591.116223,82.3383978 L589.675545,78.6961326 C589.493947,78.2486188 589.324455,78.1367403 588.912833,78.1367403 L588.416465,78.1367403 C587.871671,78.1367403 587.714286,78.3853591 587.714286,78.8950276 L587.714286,86.589779 C587.714286,86.8135359 587.811138,86.8508287 587.992736,86.8508287 L588.864407,86.8508287 C589.070218,86.8508287 589.142857,86.8135359 589.142857,86.589779 L589.142857,80.9958564 L589.215496,80.9958564 L589.869249,82.6616022 L590.934625,85.2845304 C591.09201,85.7071823 591.213075,85.8314917 591.612591,85.8314917 L592.157385,85.8314917 C592.556901,85.8314917 592.677966,85.7071823 592.847458,85.2845304 L593.924939,82.5372928 L594.566586,80.8466851 L594.639225,80.8466851 L594.639225,86.589779 Z M599.324455,83.531768 L599.324455,86.589779 C599.324455,86.8135359 599.263923,86.8508287 599.046005,86.8508287 L598.138015,86.8508287 C597.956416,86.8508287 597.859564,86.801105 597.859564,86.589779 L597.859564,78.8328729 C597.859564,78.3729282 598.029056,78.1243094 598.53753,78.1243094 L601.418886,78.1243094 C603.041162,78.1243094 604.142857,79.218232 604.142857,80.7845304 C604.142857,81.6671271 603.719128,83.531768 601.297821,83.531768 L599.324455,83.531768 Z M602.617433,80.8839779 C602.617433,80.3121547 602.326877,79.4917127 601.128329,79.4917127 L599.336562,79.4917127 L599.336562,82.2513812 L601.152542,82.2513812 C602.169492,82.2513812 602.617433,81.679558 602.617433,80.8839779 Z M611.285714,86.5649171 L611.285714,85.7941989 C611.285714,85.570442 611.249395,85.4958564 611.031477,85.4958564 L607.738499,85.4958564 C607.157385,85.4958564 606.903148,85.2223757 606.903148,84.6878453 L606.903148,82.8729282 L610.559322,82.8729282 C610.765133,82.8729282 610.801453,82.7859116 610.801453,82.5870166 L610.801453,81.9033149 C610.801453,81.679558 610.765133,81.6049724 610.559322,81.6049724 L606.903148,81.6049724 L606.903148,80.2997238 C606.903148,79.7651934 607.121065,79.4792818 607.738499,79.4792818 L610.958838,79.4792818 C611.164649,79.4792818 611.200969,79.4171271 611.200969,79.2058011 L611.200969,78.4226519 C611.200969,78.2237569 611.164649,78.1367403 610.958838,78.1367403 L607.581114,78.1367403 C606.01937,78.1367403 605.42615,79.2058011 605.42615,80.3743094 L605.42615,84.6256906 C605.42615,85.769337 605.886199,86.8508287 607.581114,86.8508287 L611.031477,86.8508287 C611.237288,86.8508287 611.285714,86.7513812 611.285714,86.5649171 Z M614.16707,80.4116022 L615.184019,82.1892265 L617.605327,86.3162983 C617.859564,86.7265193 617.98063,86.8508287 618.404358,86.8508287 L618.828087,86.8508287 C619.372881,86.8508287 619.530266,86.5773481 619.530266,86.1049724 L619.530266,78.3977901 C619.530266,78.1864641 619.457627,78.1367403 619.251816,78.1367403 L618.355932,78.1367403 C618.150121,78.1367403 618.077482,78.1864641 618.077482,78.3977901 L618.077482,84.5883978 L618.029056,84.5883978 L617,82.7983425 L614.590799,78.6837017 C614.336562,78.2610497 614.215496,78.1367403 613.791768,78.1367403 L613.368039,78.1367403 C612.835351,78.1367403 612.66586,78.3604972 612.66586,78.8950276 L612.66586,86.589779 C612.66586,86.801105 612.762712,86.8508287 612.94431,86.8508287 L613.840194,86.8508287 C614.058111,86.8508287 614.118644,86.8135359 614.118644,86.589779 L614.118644,80.4116022 L614.16707,80.4116022 Z M621.188862,80.3743094 C621.188862,81.679558 622.205811,82.3135359 623.961259,83.0096685 C625.11138,83.4696133 625.631961,83.8052486 625.631961,84.4889503 C625.631961,85.1353591 625.171913,85.6201657 623.949153,85.6201657 C623.186441,85.6201657 622.31477,85.371547 621.539952,85.0359116 C621.40678,84.9861878 621.33414,85.0110497 621.273608,85.1477901 L620.910412,85.9930939 C620.837772,86.1546961 620.874092,86.2417127 620.983051,86.2914365 C621.927361,86.8259669 623.125908,86.9875691 624.130751,86.9875691 C625.849879,86.9875691 627.169492,86.179558 627.169492,84.4516575 C627.169492,82.8729282 625.946731,82.301105 624.554479,81.7168508 C623.246973,81.1698895 622.702179,80.871547 622.702179,80.2624309 C622.702179,79.7776243 623.065375,79.3674033 623.900726,79.3674033 C624.554479,79.3674033 625.365617,79.5165746 626.164649,79.7900552 C626.285714,79.8273481 626.33414,79.8273481 626.394673,79.6533149 L626.68523,78.808011 C626.745763,78.6464088 626.72155,78.5966851 626.588378,78.5220994 C625.861985,78.1864641 624.784504,78 623.924939,78 C622.084746,78 621.188862,78.9944751 621.188862,80.3743094 Z M633.464891,86.6519337 L632.932203,84.948895 L629.857143,84.948895 L629.324455,86.6395028 C629.276029,86.788674 629.20339,86.8508287 629.009685,86.8508287 L627.895884,86.8508287 C627.726392,86.8508287 627.677966,86.7265193 627.726392,86.589779 L630.341404,78.7209945 C630.498789,78.2361878 630.656174,78.1367403 631.116223,78.1243094 L631.636804,78.1243094 C632.145278,78.1243094 632.290557,78.2361878 632.447942,78.7209945 L635.075061,86.589779 C635.123487,86.7140884 635.087167,86.8508287 634.917676,86.8508287 L633.803874,86.8508287 C633.634383,86.8508287 633.525424,86.8383978 633.464891,86.6519337 Z M630.849879,81.5303867 L630.220339,83.6560773 L632.544794,83.6560773 L631.915254,81.5676796 L631.40678,79.8024862 L631.346247,79.8024862 L630.849879,81.5303867 Z M636.01937,80.3743094 C636.01937,81.679558 637.03632,82.3135359 638.791768,83.0096685 C639.941889,83.4696133 640.46247,83.8052486 640.46247,84.4889503 C640.46247,85.1353591 640.002421,85.6201657 638.779661,85.6201657 C638.016949,85.6201657 637.145278,85.371547 636.37046,85.0359116 C636.237288,84.9861878 636.164649,85.0110497 636.104116,85.1477901 L635.74092,85.9930939 C635.668281,86.1546961 635.7046,86.2417127 635.813559,86.2914365 C636.757869,86.8259669 637.956416,86.9875691 638.961259,86.9875691 C640.680387,86.9875691 642,86.179558 642,84.4516575 C642,82.8729282 640.77724,82.301105 639.384988,81.7168508 C638.077482,81.1698895 637.532688,80.871547 637.532688,80.2624309 C637.532688,79.7776243 637.895884,79.3674033 638.731235,79.3674033 C639.384988,79.3674033 640.196126,79.5165746 640.995157,79.7900552 C641.116223,79.8273481 641.164649,79.8273481 641.225182,79.6533149 L641.515738,78.808011 C641.576271,78.6464088 641.552058,78.5966851 641.418886,78.5220994 C640.692494,78.1864641 639.615012,78 638.755448,78 C636.915254,78 636.01937,78.9944751 636.01937,80.3743094 Z" id="EL-DOBLE-DE-PUNTOS-RECOMPENSAS" fill="#4D833F" fill-rule="nonzero"></path>
                <path d="M2.23922723,106.51314 C2.23922723,106.786999 2.19503195,106.832642 1.90039679,106.832642 L0.338830436,106.832642 C0.103122307,106.832642 0,106.75657 0,106.51314 L0,98.9820194 C0,97.5366528 0.677660872,96.1673582 2.71064349,96.1673582 L7.01231685,96.1673582 C7.26275673,96.1673582 7.30695201,96.2434302 7.30695201,96.5325035 L7.30695201,97.8257261 C7.30695201,98.0843707 7.23329322,98.1604426 7.01231685,98.1604426 L3.1967915,98.1604426 C2.43074008,98.1604426 2.23922723,98.5560166 2.23922723,99.1037344 L2.23922723,100.503458 L6.42304652,100.503458 C6.65875465,100.503458 6.70294993,100.564315 6.70294993,100.868603 L6.70294993,102.055325 C6.70294993,102.298755 6.64402289,102.405256 6.42304652,102.405256 L2.23922723,102.405256 L2.23922723,106.51314 Z M13.9362431,106.589212 L13.3617046,104.611342 L9.98813198,104.611342 L9.41359341,106.543568 C9.35466638,106.741355 9.28100759,106.832642 9.00110419,106.832642 L7.27748849,106.832642 C7.07124388,106.832642 7.0270486,106.680498 7.07124388,106.528354 L10.1354496,96.988935 C10.3416942,96.2890733 10.6068658,96.1673582 11.2108679,96.1521438 L12.0947734,96.1521438 C12.7577025,96.1521438 13.0081424,96.2434302 13.2438505,96.988935 L16.3080562,106.528354 C16.3522515,106.650069 16.322788,106.832642 16.1165433,106.832642 L14.3634641,106.832642 C14.1424878,106.832642 13.9951702,106.802213 13.9362431,106.589212 Z M11.0782821,100.792531 L10.5184753,102.724758 L12.8313613,102.724758 L12.2715545,100.792531 L11.7264794,98.6168741 L11.6380889,98.6168741 L11.0782821,100.792531 Z M20.3445579,106.832642 L24.602036,106.832642 C24.8082806,106.832642 24.8819394,106.741355 24.8819394,106.51314 L24.8819394,105.159059 C24.8819394,104.885201 24.8230124,104.839557 24.602036,104.839557 L20.8601694,104.839557 C20.2708991,104.839557 19.8731417,104.64177 19.8731417,103.865837 L19.8731417,96.4868603 C19.8731417,96.2282158 19.8142146,96.1673582 19.5195795,96.1673582 L17.9580131,96.1673582 C17.722305,96.1673582 17.6191827,96.2434302 17.6191827,96.4868603 L17.6191827,104.033195 C17.6191827,105.417704 18.1642577,106.832642 20.3445579,106.832642 Z M32.1005009,106.589212 L31.5259623,104.611342 L28.1523897,104.611342 L27.5778511,106.543568 C27.5189241,106.741355 27.4452653,106.832642 27.1653619,106.832642 L25.4417462,106.832642 C25.2355016,106.832642 25.1913063,106.680498 25.2355016,106.528354 L28.2997073,96.988935 C28.5059519,96.2890733 28.7711235,96.1673582 29.3751256,96.1521438 L30.2590311,96.1521438 C30.9219602,96.1521438 31.1724001,96.2434302 31.4081082,96.988935 L34.4723139,106.528354 C34.5165092,106.650069 34.4870457,106.832642 34.2808011,106.832642 L32.5277218,106.832642 C32.3067455,106.832642 32.1594279,106.802213 32.1005009,106.589212 Z M29.2425398,100.792531 L28.682733,102.724758 L30.995619,102.724758 L30.4358122,100.792531 L29.8907371,98.6168741 L29.8023466,98.6168741 L29.2425398,100.792531 Z M42.3096092,100.899032 L42.3096092,101.005533 C43.4292228,101.461964 43.8859073,102.5574 43.8859073,103.591978 C43.8859073,105.524205 42.3390727,106.832642 40.3650171,106.832642 L36.6673459,106.832642 C35.9602215,106.832642 35.7834404,106.558783 35.7834404,105.904564 L35.7834404,97.1106501 C35.7834404,96.4716459 35.9602215,96.1673582 36.6673459,96.1673582 L40.2766266,96.1673582 C42.0591693,96.1673582 43.4439546,96.9432918 43.4439546,98.8603043 C43.4439546,99.6970954 42.9725383,100.518672 42.3096092,100.899032 Z M41.5730213,103.439834 C41.5730213,102.633472 41.0721415,102.070539 40.1440408,102.070539 L38.0226676,102.070539 L38.0226676,104.793914 L40.1440408,104.793914 C41.2636544,104.793914 41.5730213,104.017981 41.5730213,103.439834 Z M38.0226676,98.1908714 L38.0226676,100.214385 L40.0261867,100.214385 C40.5123347,100.214385 41.1310686,100.016598 41.1310686,99.164592 C41.1310686,98.5560166 40.7333111,98.1908714 40.0998455,98.1908714 L38.0226676,98.1908714 Z M53.1816467,106.482711 L53.1816467,105.189488 C53.1816467,104.885201 53.1374514,104.824343 52.8870115,104.824343 L48.9978274,104.824343 C48.3790935,104.824343 48.0402631,104.611342 48.0402631,103.91148 L48.0402631,102.17704 L52.2682777,102.17704 C52.5039858,102.17704 52.5481811,102.070539 52.5481811,101.827109 L52.5481811,100.640387 C52.5481811,100.351314 52.5039858,100.275242 52.2682777,100.275242 L48.0402631,100.275242 L48.0402631,99.1037344 C48.0402631,98.571231 48.231776,98.1604426 48.9978274,98.1604426 L52.7396939,98.1604426 C52.9606703,98.1604426 53.0195973,98.0843707 53.0195973,97.8257261 L53.0195973,96.5325035 C53.0195973,96.2434302 52.9754021,96.1673582 52.7396939,96.1673582 L48.5116794,96.1673582 C46.522892,96.1673582 45.8010359,97.5366528 45.8010359,98.9820194 L45.8010359,104.033195 C45.8010359,105.417704 46.3461109,106.832642 48.5264111,106.832642 L52.8870115,106.832642 C53.1227196,106.832642 53.1816467,106.726141 53.1816467,106.482711 Z M57.5569788,106.832642 L61.8144569,106.832642 C62.0207015,106.832642 62.0943603,106.741355 62.0943603,106.51314 L62.0943603,105.159059 C62.0943603,104.885201 62.0354333,104.839557 61.8144569,104.839557 L58.0725904,104.839557 C57.48332,104.839557 57.0855626,104.64177 57.0855626,103.865837 L57.0855626,96.4868603 C57.0855626,96.2282158 57.0266355,96.1673582 56.7320004,96.1673582 L55.170434,96.1673582 C54.9347259,96.1673582 54.8316036,96.2434302 54.8316036,96.4868603 L54.8316036,104.033195 C54.8316036,105.417704 55.3766786,106.832642 57.5569788,106.832642 Z M66.071935,106.832642 L70.3294131,106.832642 C70.5356577,106.832642 70.6093165,106.741355 70.6093165,106.51314 L70.6093165,105.159059 C70.6093165,104.885201 70.5503894,104.839557 70.3294131,104.839557 L66.5875465,104.839557 C65.9982762,104.839557 65.6005187,104.64177 65.6005187,103.865837 L65.6005187,96.4868603 C65.6005187,96.2282158 65.5415917,96.1673582 65.2469565,96.1673582 L63.6853902,96.1673582 C63.4496821,96.1673582 63.3465597,96.2434302 63.3465597,96.4868603 L63.3465597,104.033195 C63.3465597,105.417704 63.8916348,106.832642 66.071935,106.832642 Z M77.8278779,106.589212 L77.2533394,104.611342 L73.8797668,104.611342 L73.3052282,106.543568 C73.2463012,106.741355 73.1726424,106.832642 72.892739,106.832642 L71.1691233,106.832642 C70.9628787,106.832642 70.9186834,106.680498 70.9628787,106.528354 L74.0270844,96.988935 C74.233329,96.2890733 74.4985006,96.1673582 75.1025027,96.1521438 L75.9864082,96.1521438 C76.6493373,96.1521438 76.8997772,96.2434302 77.1354853,96.988935 L80.199691,106.528354 C80.2438863,106.650069 80.2144227,106.832642 80.0081781,106.832642 L78.2550989,106.832642 C78.0341226,106.832642 77.886805,106.802213 77.8278779,106.589212 Z M74.9699169,100.792531 L74.4101101,102.724758 L76.7229961,102.724758 L76.1631893,100.792531 L75.6181142,98.6168741 L75.5297237,98.6168741 L74.9699169,100.792531 Z M85.5473192,99.0885201 C85.5473192,100.777317 86.9173727,101.583679 88.9945506,102.405256 C90.24675,102.892116 90.6297757,103.242047 90.6297757,103.850622 C90.6297757,104.39834 90.2614818,104.915629 89.0240141,104.915629 C88.0222545,104.915629 86.9026409,104.520055 86.107126,104.200553 C85.8861496,104.109267 85.7977591,104.124481 85.6946368,104.367911 L85.193757,105.585062 C85.0906347,105.843707 85.1200982,105.950207 85.2821475,106.041494 C86.4017611,106.741355 87.9191322,107 89.1860634,107 C91.4842177,107 93.0310523,105.950207 93.0310523,103.820194 C93.0310523,101.842324 91.6020717,101.096819 89.5985526,100.290456 C88.2874262,99.7427386 87.874937,99.4384509 87.874937,98.9059474 C87.874937,98.4495159 88.1990356,98.0691563 89.0534776,98.0691563 C89.8489925,98.0691563 90.8065568,98.2669433 91.7199258,98.5560166 C91.9556339,98.6168741 92.014561,98.6168741 92.1176833,98.3278008 L92.500709,97.186722 C92.6038313,96.8824343 92.5890995,96.8215768 92.3533914,96.6998617 C91.4989494,96.2586445 90.1730912,96 89.0534776,96 C86.652201,96 85.5473192,97.3692946 85.5473192,99.0885201 Z M103.416942,101.477178 C103.416942,104.946058 101.973229,107 98.7911697,107 C95.7416958,107 94.2832517,105.006916 94.2832517,101.522822 C94.2832517,98.0995851 96.0215992,96.0152144 98.835365,96.0152144 C101.899571,96.0152144 103.416942,98.1147994 103.416942,101.477178 Z M101.074592,101.522822 C101.05986,99.6818811 100.647371,98.0843707 98.8500967,98.0843707 C97.3474574,98.0843707 96.6256013,99.6058091 96.6256013,101.431535 C96.6256013,103.561549 97.1559445,104.915629 98.8648285,104.915629 C100.558981,104.915629 101.074592,103.302905 101.074592,101.522822 Z M111.814044,101.766252 L111.828776,101.842324 C112.491705,102.146611 112.697949,102.724758 112.87473,103.439834 L113.62605,106.482711 C113.655514,106.604426 113.640782,106.832642 113.405074,106.832642 L111.858239,106.832642 C111.637263,106.832642 111.357359,106.832642 111.268969,106.528354 L110.620771,103.835408 C110.370332,102.846473 109.898915,102.511757 109.01501,102.511757 L107.586029,102.511757 L107.586029,106.51314 C107.586029,106.786999 107.541834,106.832642 107.247199,106.832642 L105.670901,106.832642 C105.435193,106.832642 105.33207,106.75657 105.33207,106.51314 L105.33207,97.0954357 C105.33207,96.4868603 105.508851,96.1673582 106.215976,96.1673582 L109.825256,96.1673582 C111.94663,96.1673582 113.184097,97.384509 113.184097,99.2558783 C113.184097,100.290456 112.697949,101.279391 111.814044,101.766252 Z M110.885943,99.4080221 C110.885943,98.8907331 110.635503,98.2060858 109.60428,98.2060858 L107.600761,98.2060858 L107.600761,100.640387 L109.560085,100.640387 C110.414527,100.640387 110.885943,100.138313 110.885943,99.4080221 Z M117.633088,106.51314 L117.633088,96.5020747 C117.633088,96.2434302 117.574161,96.1825726 117.279526,96.1825726 L115.71796,96.1825726 C115.482252,96.1825726 115.379129,96.2586445 115.379129,96.5020747 L115.379129,106.51314 C115.379129,106.75657 115.482252,106.832642 115.71796,106.832642 L117.279526,106.832642 C117.574161,106.832642 117.633088,106.771784 117.633088,106.51314 Z M126.000727,106.589212 L125.426188,104.611342 L122.052616,104.611342 L121.478077,106.543568 C121.41915,106.741355 121.345491,106.832642 121.065588,106.832642 L119.341972,106.832642 C119.135728,106.832642 119.091532,106.680498 119.135728,106.528354 L122.199933,96.988935 C122.406178,96.2890733 122.67135,96.1673582 123.275352,96.1521438 L124.159257,96.1521438 C124.822186,96.1521438 125.072626,96.2434302 125.308334,96.988935 L128.37254,106.528354 C128.416735,106.650069 128.387272,106.832642 128.181027,106.832642 L126.427948,106.832642 C126.206971,106.832642 126.059654,106.802213 126.000727,106.589212 Z M123.142766,100.792531 L122.582959,102.724758 L124.895845,102.724758 L124.336038,100.792531 L123.790963,98.6168741 L123.702573,98.6168741 L123.142766,100.792531 Z M131.981821,100.214385 L133.396069,102.481328 L135.753151,106.163209 C136.091981,106.726141 136.268762,106.832642 136.858033,106.832642 L137.476766,106.832642 C138.242818,106.832642 138.434331,106.421853 138.434331,105.782849 L138.434331,96.4868603 C138.434331,96.2586445 138.34594,96.1673582 138.0955,96.1673582 L136.548666,96.1673582 C136.268762,96.1673582 136.209835,96.2434302 136.209835,96.4868603 L136.209835,102.846473 L136.136176,102.846473 L134.869245,100.792531 L132.364846,96.8520055 C132.026016,96.2738589 131.849235,96.1673582 131.259964,96.1673582 L130.641231,96.1673582 C129.919375,96.1673582 129.683666,96.4412172 129.683666,97.2323651 L129.683666,106.51314 C129.683666,106.75657 129.786789,106.832642 130.022497,106.832642 L131.569331,106.832642 C131.849235,106.832642 131.908162,106.771784 131.908162,106.51314 L131.908162,100.214385 L131.981821,100.214385 Z M146.610456,106.589212 L146.035918,104.611342 L142.662345,104.611342 L142.087807,106.543568 C142.02888,106.741355 141.955221,106.832642 141.675317,106.832642 L139.951702,106.832642 C139.745457,106.832642 139.701262,106.680498 139.745457,106.528354 L142.809663,96.988935 C143.015907,96.2890733 143.281079,96.1673582 143.885081,96.1521438 L144.768987,96.1521438 C145.431916,96.1521438 145.682356,96.2434302 145.918064,96.988935 L148.982269,106.528354 C149.026465,106.650069 148.997001,106.832642 148.790757,106.832642 L147.037677,106.832642 C146.816701,106.832642 146.669383,106.802213 146.610456,106.589212 Z M143.752495,100.792531 L143.192689,102.724758 L145.505575,102.724758 L144.945768,100.792531 L144.400693,98.6168741 L144.312302,98.6168741 L143.752495,100.792531 Z" id="FALABELLA-SORIANA" fill="#4D833F" fill-rule="nonzero"></path>
                <path d="M522.806729,25.6734176 L516.907659,25.6734176 C515.293486,25.6734176 515,25.1093208 515,23.7139235 L515,6.85039784 C515,5.54406839 515.293486,4.89090366 516.907659,4.89090366 L522.454545,4.89090366 C529.909091,4.89090366 531.934145,10.1459108 531.934145,15.1930927 C531.934145,20.1215175 530.290623,25.6734176 522.806729,25.6734176 Z M526.269864,15.1337141 C526.269864,11.9569584 525.389406,9.70057118 521.72083,9.70057118 L520.517538,9.70057118 L520.517538,20.8043715 L521.808876,20.8043715 C525.389406,20.8043715 526.269864,18.4292271 526.269864,15.1337141 Z M550.394417,17.8057516 C550.394417,22.9420015 547.929134,26 542.587688,26 C537.040802,26 534.869005,22.8232443 534.869005,17.8354409 C534.869005,12.8179483 537.510379,9.64119257 542.617037,9.64119257 C547.782391,9.64119257 550.394417,12.7288804 550.394417,17.8057516 Z M544.818182,17.8651302 C544.818182,15.4602965 544.084467,14.2133456 542.617037,14.2133456 C541.149606,14.2133456 540.415891,15.4009179 540.415891,17.7760623 C540.415891,20.3887212 541.178955,21.4278469 542.617037,21.4278469 C544.055118,21.4278469 544.818182,20.0918282 544.818182,17.8651302 Z M568.972083,17.8057516 C568.972083,22.110701 566.829635,26 560.901217,26 C558.641374,26 556.088046,25.6437283 554.268432,24.7530492 C553.652112,24.4264668 553.622763,24.0998844 553.622763,23.6248555 L553.622763,4.65338922 C553.622763,4.14867102 553.769506,4.00022449 554.356478,4.00022449 L558.230494,4.00022449 C558.758769,4.00022449 558.964209,4.08929241 558.964209,4.65338922 L558.964209,9.99746424 C559.78597,9.7599498 560.84252,9.61150327 562.133858,9.61150327 C567.064424,9.61150327 568.972083,13.3523558 568.972083,17.8057516 Z M563.425197,17.8057516 C563.425197,15.31185 562.427344,14.2133456 560.813171,14.2133456 C560.460988,14.2133456 559.521832,14.3024136 558.964209,14.4805494 L558.964209,21.2200218 C559.492484,21.3684683 560.284896,21.4278469 560.578382,21.4278469 C562.368647,21.4278469 563.425197,20.4184105 563.425197,17.8057516 Z M580.447387,21.8138079 C580.418039,21.4278469 580.329993,21.3684683 579.919112,21.4278469 C579.654975,21.4575362 579.068003,21.5169148 578.803865,21.5169148 C577.806013,21.5169148 577.629921,21.041886 577.629921,20.0918282 L577.629921,4.5643213 C577.629921,4.08929241 577.395132,4.00022449 576.925555,4.00022449 L573.080888,4.00022449 C572.61131,4.00022449 572.347173,3.97053519 572.347173,4.59401061 L572.347173,21.1012646 C572.347173,25.1390101 574.108089,26 576.690766,26 C577.776664,26 579.361489,25.7921749 580.271296,25.4655925 C580.799571,25.2874567 580.858268,25.1983887 580.799571,24.7530492 L580.447387,21.8138079 Z M589.838941,9.64119257 C594.505369,9.64119257 597,11.9569584 597,16.5291115 C597,18.5776736 596.471725,19.3199062 595.004295,19.3199062 L587.872584,19.3199062 C587.96063,21.1606432 589.01718,21.4872255 590.660702,21.4872255 C591.658554,21.4872255 592.80315,21.2497111 593.977094,20.8637501 C594.534717,20.6856143 594.652112,20.7449929 594.798855,21.0715753 L595.884753,23.7733021 C596.031496,24.159263 595.884753,24.3077096 595.591267,24.5155347 C594.182534,25.4952818 591.7466,26 590.073729,26 C584.556192,26 582.267001,23.476409 582.267001,17.9245089 C582.267001,12.6991911 584.996421,9.64119257 589.838941,9.64119257 Z M590.015032,14.0352098 C589.046528,14.0352098 588.048676,14.6883745 587.901933,16.2025291 L591.834646,16.2025291 C591.775948,14.925889 591.365068,14.0352098 590.015032,14.0352098 Z" id="Doble" fill="#4D833F" fill-rule="nonzero"></path>
                <g id="Recompensas" transform="translate(515.000000, 50.000000)" fill-rule="nonzero" fill="#9B9B9B">
                    <path d="M0.173469388,10.262 L0.173469388,1.386 C0.173469388,0.896 0.353877551,0.672 0.88122449,0.672 L4.05918367,0.672 C5.82163265,0.672 6.98734694,1.82 6.98734694,3.43 C6.98734694,4.55 6.39061224,5.46 5.41918367,5.824 L5.41918367,5.88 C6.18244898,6.118 6.44612245,6.608 6.62653061,7.294 L7.43142857,10.248 C7.45918367,10.346 7.47306122,10.5 7.26489796,10.5 L6.34897959,10.5 C6.26571429,10.5 6.14081633,10.486 6.09918367,10.318 L5.36367347,7.644 C5.05836735,6.552 4.3922449,6.286 3.46244898,6.286 L1.47795918,6.286 L1.47795918,10.262 C1.47795918,10.458 1.40857143,10.5 1.21428571,10.5 L0.437142857,10.5 C0.256734694,10.5 0.173469388,10.458 0.173469388,10.262 Z M5.71061224,3.486 C5.71061224,2.744 5.30816327,1.862 3.90653061,1.862 L1.49183673,1.862 L1.49183673,5.166 L3.80938776,5.166 C5.1555102,5.166 5.71061224,4.41 5.71061224,3.486 Z M11.6502041,2.996 C13.7595918,2.996 14.6893878,4.256 14.6893878,6.09 C14.6893878,6.972 14.2036735,7.182 13.6485714,7.182 L9.66571429,7.182 C9.67959184,8.946 10.664898,9.59 11.8722449,9.59 C12.4828571,9.59 13.1212245,9.408 13.5097959,9.198 C13.6346939,9.128 13.7040816,9.142 13.7734694,9.268 L14.064898,9.856 C14.1342857,9.996 14.1065306,10.08 13.9816327,10.136 C13.3155102,10.542 12.5106122,10.654 11.775102,10.654 C9.69346939,10.654 8.4444898,9.506 8.4444898,6.86 C8.4444898,4.396 9.81836735,2.996 11.6502041,2.996 Z M13.5514286,6.202 C13.5514286,5.026 13.1628571,4.018 11.6640816,4.018 C10.4428571,4.018 9.77673469,5.054 9.70734694,6.202 L13.5514286,6.202 Z M19.2273469,9.604 C17.5759184,9.604 17.1179592,8.386 17.1179592,6.902 C17.1179592,5.418 17.7285714,4.088 19.2134694,4.088 C19.8102041,4.088 20.3236735,4.242 20.7677551,4.438 C20.9342857,4.522 20.9759184,4.466 21.0314286,4.354 L21.3228571,3.78 C21.4061224,3.64 21.3506122,3.556 21.2395918,3.486 C20.615102,3.136 19.935102,2.996 19.1995918,2.996 C17.1734694,2.996 15.9106122,4.508 15.9106122,6.902 C15.9106122,9.366 17.0208163,10.654 19.0469388,10.654 C19.7963265,10.654 20.6844898,10.542 21.3922449,10.15 C21.5032653,10.08 21.544898,9.996 21.4616327,9.856 L21.1840816,9.268 C21.1285714,9.17 21.0730612,9.1 20.9065306,9.198 C20.5040816,9.408 19.8518367,9.604 19.2273469,9.604 Z M29.024898,6.79 C29.024898,9.268 27.8730612,10.654 25.7497959,10.654 C23.6681633,10.654 22.5440816,9.338 22.5440816,6.832 C22.5440816,4.368 23.9318367,2.996 25.7914286,2.996 C27.9008163,2.996 29.024898,4.424 29.024898,6.79 Z M27.8036735,6.832 C27.8036735,5.376 27.4289796,4.018 25.8053061,4.018 C24.3897959,4.018 23.7514286,5.278 23.7514286,6.79 C23.7514286,8.47 24.2232653,9.632 25.7636735,9.632 C27.3318367,9.632 27.8036735,8.246 27.8036735,6.832 Z M38.0314286,2.996 C37.0044898,2.996 36.0746939,3.29 35.3946939,3.766 L35.3808163,3.766 C34.7979592,3.22 34.0902041,2.996 32.9661224,2.996 C31.5644898,2.996 30.5514286,3.108 30.5514286,4.214 L30.5514286,10.304 C30.5514286,10.472 30.6346939,10.5 30.7873469,10.5 L31.5367347,10.5 C31.7032653,10.5 31.7587755,10.472 31.7587755,10.304 L31.7587755,4.2 C32.2028571,4.116 32.7857143,4.088 33.0216327,4.088 C34.7563265,4.088 35.144898,5.012 35.144898,6.538 L35.144898,10.304 C35.144898,10.472 35.2142857,10.5 35.3669388,10.5 L36.1163265,10.5 C36.2828571,10.5 36.3522449,10.472 36.3522449,10.304 L36.3522449,6.552 C36.3522449,5.726 36.2828571,5.082 36.0330612,4.55 C36.504898,4.284 37.3097959,4.088 37.864898,4.088 C39.3359184,4.088 39.8771429,4.886 39.8771429,6.608 L39.8771429,10.304 C39.8771429,10.472 39.9465306,10.5 40.0991837,10.5 L40.862449,10.5 C41.015102,10.5 41.0706122,10.472 41.0706122,10.304 L41.0706122,6.412 C41.0706122,4.382 40.2795918,2.996 38.0314286,2.996 Z M49.1195918,6.818 C49.1195918,8.932 48.064898,10.654 45.9,10.654 C45.3865306,10.654 44.7759184,10.612 44.0959184,10.416 L44.0959184,13.132 C44.0959184,13.3 44.0404082,13.328 43.8877551,13.328 L43.1106122,13.328 C42.9718367,13.328 42.8885714,13.3 42.8885714,13.132 L42.8885714,3.752 C42.8885714,3.626 42.9302041,3.556 43.055102,3.514 C43.9710204,3.108 44.9979592,2.996 45.8861224,2.996 C48.1204082,2.996 49.1195918,4.62 49.1195918,6.818 Z M47.8567347,6.818 C47.8567347,4.76 47.0102041,4.046 45.6918367,4.046 C45.22,4.046 44.5122449,4.144 44.0959184,4.312 L44.0959184,9.352 C44.7897959,9.562 45.2755102,9.604 45.7057143,9.604 C46.9546939,9.604 47.8567347,8.876 47.8567347,6.818 Z M53.5742857,2.996 C55.6836735,2.996 56.6134694,4.256 56.6134694,6.09 C56.6134694,6.972 56.1277551,7.182 55.5726531,7.182 L51.5897959,7.182 C51.6036735,8.946 52.5889796,9.59 53.7963265,9.59 C54.4069388,9.59 55.0453061,9.408 55.4338776,9.198 C55.5587755,9.128 55.6281633,9.142 55.697551,9.268 L55.9889796,9.856 C56.0583673,9.996 56.0306122,10.08 55.9057143,10.136 C55.2395918,10.542 54.4346939,10.654 53.6991837,10.654 C51.617551,10.654 50.3685714,9.506 50.3685714,6.86 C50.3685714,4.396 51.742449,2.996 53.5742857,2.996 Z M55.4755102,6.202 C55.4755102,5.026 55.0869388,4.018 53.5881633,4.018 C52.3669388,4.018 51.7008163,5.054 51.6314286,6.202 L55.4755102,6.202 Z M64.1073469,10.29 L64.1073469,6.538 C64.1073469,4.004 63.1081633,2.996 60.735102,2.996 C60.2771429,2.996 59.4028571,3.052 58.9865306,3.122 C58.3204082,3.22 58.1122449,3.556 58.1122449,4.186 L58.1122449,10.29 C58.1122449,10.472 58.1955102,10.5 58.3342857,10.5 L59.097551,10.5 C59.2502041,10.5 59.3195918,10.472 59.3195918,10.29 L59.3195918,4.186 C59.9163265,4.088 60.4297959,4.074 60.6379592,4.074 C62.4281633,4.074 62.9,4.9 62.9,6.58 L62.9,10.29 C62.9,10.472 62.9693878,10.5 63.1220408,10.5 L63.8853061,10.5 C64.0518367,10.5 64.1073469,10.472 64.1073469,10.29 Z M70.9212245,8.512 C70.9212245,7.196 69.8110204,6.706 68.6591837,6.272 C67.4657143,5.824 67.0077551,5.572 67.0077551,4.942 C67.0077551,4.438 67.4518367,4.032 68.2706122,4.032 C68.895102,4.032 69.3808163,4.102 70.1163265,4.382 C70.1995918,4.424 70.2689796,4.438 70.3244898,4.326 L70.5881633,3.668 C70.6159184,3.57 70.5881633,3.458 70.4771429,3.402 C69.7555102,3.108 69.0477551,2.996 68.2983673,2.996 C66.702449,2.996 65.8281633,3.836 65.8281633,5.012 C65.8281633,6.118 66.4942857,6.608 68.0485714,7.168 C69.1310204,7.56 69.7555102,7.882 69.7555102,8.568 C69.7555102,9.24 69.2004082,9.618 68.3122449,9.618 C67.66,9.618 66.8273469,9.464 66.0918367,9.114 C65.9114286,9.044 65.8420408,9.086 65.7865306,9.226 L65.5228571,9.8 C65.4534694,9.954 65.5089796,10.038 65.62,10.094 C66.3693878,10.5 67.4518367,10.654 68.3122449,10.654 C69.7693878,10.654 70.9212245,9.954 70.9212245,8.512 Z M78.0126531,9.814 C78.0126531,10.01 77.9432653,10.122 77.8044898,10.178 C76.9857143,10.542 75.9310204,10.654 75.0567347,10.654 C72.6697959,10.654 72.0730612,9.548 72.0730612,8.33 C72.0730612,7.042 72.8918367,5.838 75.0983673,5.838 L76.7914286,5.838 L76.7914286,5.53 C76.7914286,4.648 76.5138776,4.06 75.14,4.06 C74.5016327,4.06 73.6689796,4.2 73.2110204,4.34 C73.0583673,4.396 72.975102,4.396 72.9334694,4.242 L72.7669388,3.64 C72.7391837,3.542 72.7530612,3.458 72.8918367,3.402 C73.5857143,3.108 74.5987755,2.996 75.3481633,2.996 C77.18,2.996 78.0126531,3.864 78.0126531,5.432 L78.0126531,9.814 Z M76.777551,9.38 L76.777551,6.888 L75.1677551,6.888 C74.4877551,6.888 73.2804082,7 73.2804082,8.33 C73.2804082,9.352 74.057551,9.646 75.0428571,9.646 C75.3620408,9.646 76.1946939,9.604 76.777551,9.38 Z M84.8265306,8.512 C84.8265306,7.196 83.7163265,6.706 82.5644898,6.272 C81.3710204,5.824 80.9130612,5.572 80.9130612,4.942 C80.9130612,4.438 81.3571429,4.032 82.1759184,4.032 C82.8004082,4.032 83.2861224,4.102 84.0216327,4.382 C84.104898,4.424 84.1742857,4.438 84.2297959,4.326 L84.4934694,3.668 C84.5212245,3.57 84.4934694,3.458 84.382449,3.402 C83.6608163,3.108 82.9530612,2.996 82.2036735,2.996 C80.6077551,2.996 79.7334694,3.836 79.7334694,5.012 C79.7334694,6.118 80.3995918,6.608 81.9538776,7.168 C83.0363265,7.56 83.6608163,7.882 83.6608163,8.568 C83.6608163,9.24 83.1057143,9.618 82.217551,9.618 C81.5653061,9.618 80.7326531,9.464 79.9971429,9.114 C79.8167347,9.044 79.7473469,9.086 79.6918367,9.226 L79.4281633,9.8 C79.3587755,9.954 79.4142857,10.038 79.5253061,10.094 C80.2746939,10.5 81.3571429,10.654 82.217551,10.654 C83.6746939,10.654 84.8265306,9.954 84.8265306,8.512 Z" id="Shape"></path>
                </g>
                <g id="Puntos" transform="translate(469.000000, 27.000000)" fill-rule="nonzero" fill="#4D833F">
                    <path d="M6.02201709,13.99904 L6.02201709,20.5216 C6.02201709,21.00032 5.96331624,21.12 5.31760684,21.12 L1.14984615,21.12 C0.650888889,21.12 0.474786325,20.94048 0.474786325,20.5216 L0.474786325,2.15072 C0.474786325,1.0736 0.768290598,0.176 2.3825641,0.176 L9.83757265,0.176 C14.4455897,0.176 16.9990769,3.07824 16.9990769,6.908 C16.9990769,8.82288 16.3533675,13.99904 8.89835897,13.99904 L6.02201709,13.99904 Z M11.2757436,7.29696 C11.2757436,6.4592 10.9235385,5.05296 9.19186325,5.05296 L6.02201709,5.05296 L6.02201709,9.57088 L9.19186325,9.57088 C10.5713333,9.57088 11.2757436,8.46384 11.2757436,7.29696 Z M27.6239316,17.17056 C25.5107009,17.17056 25.1291453,16.15328 25.1291453,14.11872 L25.1291453,6.0104 C25.1291453,5.59152 24.9530427,5.412 24.4540855,5.412 L20.4917778,5.412 C19.8460684,5.412 19.7873675,5.53168 19.7873675,6.0104 L19.7873675,13.61008 C19.7873675,19.4744 22.1060513,21.50896 28.1228889,21.50896 C29.4730085,21.50896 32.0851966,21.32944 32.8776581,21.14992 C34.2571282,20.8208 34.4919316,20.04288 34.4919316,18.78624 L34.4919316,6.0104 C34.4919316,5.59152 34.3158291,5.412 33.8168718,5.412 L29.913265,5.412 C29.2675556,5.412 29.2088547,5.53168 29.2088547,6.0104 L29.2088547,17.05088 C28.7098974,17.14064 27.9761368,17.17056 27.6239316,17.17056 Z M45.2048376,9.3016 C47.3180684,9.3016 47.9344274,10.31888 47.9344274,12.35344 L47.9344274,20.5216 C47.9344274,20.94048 48.1105299,21.12 48.6094872,21.12 L52.5717949,21.12 C53.2175043,21.12 53.2762051,21.00032 53.2762051,20.5216 L53.2762051,12.86208 C53.2762051,6.99776 50.4585641,4.9632 44.7058803,4.9632 C43.3557607,4.9632 40.7435726,5.14272 39.9511111,5.32224 C38.571641,5.65136 38.3368376,6.42928 38.3368376,7.68592 L38.3368376,20.5216 C38.3368376,20.94048 38.5129402,21.12 39.0118974,21.12 L42.9155043,21.12 C43.5612137,21.12 43.6199145,21.00032 43.6199145,20.5216 L43.6199145,9.42128 C44.1188718,9.33152 44.8526325,9.3016 45.2048376,9.3016 Z M68.1862222,20.25232 L67.7459658,16.99104 C67.7166154,16.66192 67.5698632,16.632 67.276359,16.66192 C66.8067521,16.72176 65.6914359,16.87136 65.0750769,16.87136 C63.9891111,16.87136 63.4901538,16.57216 63.4901538,15.5848 L63.4901538,9.27168 L66.7774017,9.27168 C67.3057094,9.27168 67.2470085,9.06224 67.2470085,8.64336 L67.2470085,5.95056 C67.2470085,5.5616 67.276359,5.412 66.7774017,5.412 L63.4901538,5.412 L63.4901538,1.13344 C63.4901538,0.6248 63.1966496,0.44528 62.7857436,0.56496 L58.8821368,1.79168 C58.4712308,1.91136 58.2070769,2.09088 58.2070769,2.62944 L58.2070769,5.38208 L56.1231966,5.92064 C55.6535897,6.04032 55.6242393,6.13008 55.6242393,6.51904 L55.6242393,8.64336 C55.6242393,8.97248 55.6829402,9.27168 56.152547,9.27168 L58.2070769,9.27168 L58.2070769,17.05088 C58.2070769,19.80352 59.7332991,21.44912 63.2553504,21.44912 C64.5761197,21.44912 66.2197436,21.35936 67.8340171,20.85072 C68.3036239,20.70112 68.2155726,20.5216 68.1862222,20.25232 Z M85.3855726,13.1912 C85.3855726,18.36736 82.9201368,21.44912 77.578359,21.44912 C72.0311282,21.44912 69.8591966,18.24768 69.8591966,13.22112 C69.8591966,8.16464 72.500735,4.9632 77.6077094,4.9632 C82.7733846,4.9632 85.3855726,8.07488 85.3855726,13.1912 Z M79.8089915,13.25104 C79.8089915,10.82752 79.0752308,9.57088 77.6077094,9.57088 C76.140188,9.57088 75.4064274,10.76768 75.4064274,13.16128 C75.4064274,15.79424 76.1695385,16.84144 77.6077094,16.84144 C79.0458803,16.84144 79.8089915,15.49504 79.8089915,13.25104 Z M100.823897,16.51232 C100.823897,13.31088 98.6519658,12.23376 95.5114701,11.00704 C94.1613504,10.4984 93.721094,10.1992 93.721094,9.69056 C93.721094,9.48112 93.8971966,9.0024 94.542906,9.0024 C95.8049744,9.0024 97.0670427,9.33152 98.4171624,9.69056 C98.9748205,9.84016 99.0922222,9.81024 99.2976752,9.24176 L100.090137,7.08752 C100.32494,6.4592 100.354291,6.36944 99.8259829,6.10016 C98.4758632,5.412 96.1865299,4.9632 94.2787521,4.9632 C90.0522906,4.9632 88.2619145,7.26704 88.2619145,9.92992 C88.2619145,12.38336 90.1696923,13.64 93.2221368,14.89664 C94.9244615,15.5848 95.2766667,15.91392 95.2766667,16.30288 C95.2766667,16.69184 95.1299145,17.11072 94.0439487,17.11072 C92.8699316,17.11072 90.6099487,16.39264 89.6120342,16.0336 C89.1424274,15.85408 88.9663248,15.884 88.7608718,16.39264 L87.7042564,18.93584 C87.4988034,19.38464 87.5575043,19.59408 87.880359,19.80352 C89.6413846,20.9704 92.1948718,21.44912 94.337453,21.44912 C98.4465128,21.44912 100.823897,19.7736 100.823897,16.51232 Z" id="Shape"></path>
                </g>
                <circle id="Oval" fill="#663399" fill-rule="nonzero" cx="542.5" cy="17.5" r="5.5"></circle>
                <g id="Group" transform="translate(538.000000, 31.000000)" fill-rule="nonzero">
                    <circle id="Oval" fill="#4D833F" cx="8.5" cy="8.5" r="8.5"></circle>
                    <circle id="Oval" fill="#663399" cx="8.5" cy="8.5" r="5.95"></circle>
                </g>
                <g id="Group-Copy" transform="translate(535.000000, 9.000000)" fill-rule="nonzero">
                    <circle id="Oval" fill="#4D833F" cx="8.5" cy="8.5" r="8.5"></circle>
                    <circle id="Oval" fill="#663399" cx="8.5" cy="8.5" r="5.95"></circle>
                </g>
                <g id="Group" transform="translate(269.000000, 17.000000)" fill-rule="nonzero" fill="#FFFFFF">
                    <path d="M4.066,22.9673514 C3.26799601,22.9673514 2.51117024,22.8341635 1.7955,22.5677838 C1.07982975,22.3014041 0.48133574,21.84476 0,21.1978378 L1.33,20.0371892 C1.60866806,20.4684707 1.99816416,20.8109537 2.4985,21.0646486 C2.99883583,21.3183436 3.52133061,21.4578737 4.066,21.4832432 L4.066,16.6503784 C3.57199753,16.5235309 3.09700228,16.3554605 2.641,16.1461622 C2.18499772,15.9368638 1.78283507,15.6800016 1.4345,15.3755676 C1.08616492,15.0711336 0.81066768,14.7064526 0.608,14.2815135 C0.40533232,13.8565744 0.304,13.3587056 0.304,12.7878919 C0.304,12.2551325 0.40533232,11.766777 0.608,11.3228108 C0.81066768,10.8788446 1.08616492,10.4951368 1.4345,10.1716757 C1.78283507,9.84821457 2.18499772,9.58818119 2.641,9.39156757 C3.09700228,9.19495395 3.57199753,9.07762179 4.066,9.03956757 L4.066,7.78378378 L4.978,7.78378378 L4.978,9.03956757 C5.66200342,9.03956757 6.33649667,9.16641315 7.0015,9.42010811 C7.66650332,9.67380307 8.22066445,10.0606821 8.664,10.5807568 L7.41,11.7223784 C7.11866521,11.3418359 6.76400209,11.04692 6.346,10.8376216 C5.92799791,10.6283233 5.47200247,10.5236757 4.978,10.5236757 L4.978,15.2614054 C5.4846692,15.4263071 5.97866426,15.6038909 6.46,15.7941622 C6.94133574,15.9844334 7.36883146,16.2222689 7.7425,16.5076757 C8.11616853,16.7930826 8.41383222,17.145079 8.6355,17.5636757 C8.85716773,17.9822723 8.968,18.5023392 8.968,19.1238919 C8.968,19.6947056 8.86033443,20.2084302 8.645,20.6650811 C8.42966559,21.121732 8.1415018,21.5149533 7.7805,21.8447568 C7.41949819,22.1745602 6.99833574,22.4345936 6.517,22.6248649 C6.03566426,22.8151361 5.52266939,22.9292971 4.978,22.9673514 L4.978,24.3182703 L4.066,24.3182703 L4.066,22.9673514 Z M4.066,10.5236757 C3.44533023,10.6378384 2.94816853,10.8947007 2.5745,11.2942703 C2.20083146,11.6938398 2.014,12.198051 2.014,12.8069189 C2.014,13.1367223 2.06783279,13.4157827 2.1755,13.6441081 C2.2831672,13.8724336 2.42883241,14.0690442 2.6125,14.2339459 C2.79616758,14.3988477 3.01149876,14.541549 3.2585,14.6620541 C3.50550124,14.7825591 3.77466521,14.8998913 4.066,15.0140541 L4.066,10.5236757 Z M4.978,21.4832432 C5.62400323,21.4071348 6.16549781,21.1597859 6.6025,20.7411892 C7.03950218,20.3225925 7.258,19.8088679 7.258,19.2 C7.258,18.8575118 7.1946673,18.5594247 7.068,18.3057297 C6.9413327,18.0520348 6.77033441,17.8363973 6.555,17.6588108 C6.33966559,17.4812243 6.09583469,17.3321808 5.8235,17.2116757 C5.5511653,17.0911706 5.26933479,16.986523 4.978,16.8977297 L4.978,21.4832432 Z" id="$"></path>
                    <path d="M32.9494545,14.5262703 L32.9494545,14.6162162 C36.4972727,15.7855135 37.8894545,19.1135135 37.8894545,21.7669189 C37.8894545,27.2536216 33.4434545,31.3461622 25.8089091,31.3461622 C18.2641818,31.3461622 13.8181818,27.6583784 13.8181818,22.0367568 C13.8181818,18.8436757 15.884,15.6955676 18.7581818,14.6162162 L18.7581818,14.4812973 C15.9289091,13.356973 14.9858182,10.7035676 14.9858182,8.90464865 C14.9858182,3.14810811 20.1054545,0 25.8987273,0 C32.5901818,0 36.7218182,3.37297297 36.7218182,8.45491892 C36.7218182,10.2088649 35.7338182,13.1321081 32.9494545,14.5262703 Z M31.1530909,21.5420541 C31.1530909,18.7987027 28.9076364,17.1796757 25.8538182,17.1796757 C22.8449091,17.1796757 20.5545455,18.9785946 20.5545455,21.632 C20.5545455,23.7007568 21.9018182,25.9494054 25.8089091,25.9494054 C29.8507273,25.9494054 31.1530909,23.5658378 31.1530909,21.5420541 Z M30.21,9.21945946 C30.21,7.24064865 28.8627273,5.57664865 25.8089091,5.57664865 C22.7550909,5.57664865 21.4976364,7.37556757 21.4976364,9.35437838 C21.4976364,11.1532973 23.2490909,12.6374054 25.764,12.6374054 C28.3687273,12.6374054 30.21,11.0183784 30.21,9.21945946 Z" id="8"></path>
                </g>
                <g id="iconmonstr-arrow-20" transform="translate(170.000000, 12.000000)" fill-rule="nonzero" fill="#4D833F">
                    <polygon id="Shape" points="26.05 0 20.356 5.52745455 32.708 17.5987273 0 17.5987273 0 25.4012727 32.708 25.4012727 20.356 37.4725455 26.05 43 48 21.5"></polygon>
                </g>
                <g id="iconmonstr-arrow-20" transform="translate(378.000000, 12.000000)" fill-rule="nonzero" fill="#4D833F">
                    <polygon id="Shape" points="26.05 0 20.356 5.52745455 32.708 17.5987273 0 17.5987273 0 25.4012727 32.708 25.4012727 20.356 37.4725455 26.05 43 48 21.5"></polygon>
                </g>
            </g>
        </g>
    </g>
</svg>