<svg viewBox="0 0 24 24" xmlns="http://www.w3.org/2000/svg" xmlns:xlink="http://www.w3.org/1999/xlink">
    <defs>
        <path d="M0 10.546l7.562-7.292c1.3-1.277 2.303-2.189 3.006-2.737.626-.487 1.915-.613 3.869-.379L18.295 0a186.05 186.05 0 0 0 0 3.254c.024 1.717.256 3.168-.134 3.906-.26.492-1.67 1.992-4.228 4.499l-5.97 6.162L0 10.546z" id="a"/>
        <path d="M22.107-.427c-.326 0-.544.21-.544.526 0 1.472-1.198 2.629-2.723 2.629h-3.268c-.327 0-.544.21-.544.526 0 .315.217.525.544.525h.381c-.163.316-.544.526-.925.526-.6 0-1.09-.473-1.09-1.051 0-.579.49-1.052 1.09-1.052.326 0 .544-.21.544-.526 0-.315-.218-.526-.544-.526-1.199 0-2.179.947-2.179 2.104 0 1.156.98 2.103 2.179 2.103a2.21 2.21 0 0 0 2.124-1.578h1.143V6.2a2.46 2.46 0 0 1-.762 1.787l-9.585 9.78-7.951-7.15L10.072.887A2.722 2.722 0 0 1 12.032.1h6.263v2.629h.545l.544.075v-3.23c0-.316-.218-.526-.544-.526h-6.808c-1.034 0-1.96.368-2.668 1.104L-1.147 10.247a.47.47 0 0 0-.163.369.47.47 0 0 0 .163.368l8.714 7.887a.503.503 0 0 0 .38.158.503.503 0 0 0 .382-.158l9.966-10.149a3.653 3.653 0 0 0 1.035-2.524V3.727c1.906-.263 3.322-1.788 3.322-3.628 0-.316-.218-.526-.545-.526z" id="c"/>
    </defs>
    <g transform="translate(1.362 3.95)" fill="none" fill-rule="evenodd">
        <mask id="b" fill="#fff">
            <use xlink:href="#a"/>
        </mask>
        <use fill="#FFF" xlink:href="#a"/>
        <path d="M6.859 5.883c-.926 0-1.634.683-1.634 1.577 0 .894.708 1.578 1.634 1.578.925 0 1.633-.684 1.633-1.578S7.784 5.883 6.86 5.883zm.055 2.362c-.514 0-.857-.328-.857-.82 0-.49.343-.818.857-.818.515 0 .858.328.858.819 0 .491-.343.819-.858.819zm1.578 3.422c-.925 0-1.633.684-1.633 1.578s.708 1.577 1.633 1.577c.926 0 1.634-.683 1.634-1.577 0-.894-.708-1.578-1.634-1.578zm.013 2.355c-.514 0-.857-.328-.857-.819 0-.491.343-.819.857-.819.515 0 .858.328.858.819 0 .491-.343.819-.858.819zm2.002-6.404a.54.54 0 0 0-.762 0l-4.901 4.733a.496.496 0 0 0 0 .736.6.6 0 0 0 .38.158.6.6 0 0 0 .382-.158l4.901-4.733a.496.496 0 0 0 0-.736z" fill="#4D833F" fill-rule="nonzero" mask="url(#b)"/>
        <use fill="#4D833F" fill-rule="nonzero" xlink:href="#c"/>
    </g>
</svg>
