<svg viewBox="0 0 24 24" xmlns="http://www.w3.org/2000/svg">
    <path d="M9.775 12.53H4.696c-.935 0-1.696.76-1.696 1.695v5.08C3 20.24 3.76 21 4.696 21h5.079c.935 0 1.696-.76 1.696-1.696v-5.08c0-.934-.761-1.695-1.696-1.695zm.565 6.774a.566.566 0 0 1-.565.566H4.696a.566.566 0 0 1-.565-.566v-5.08c0-.31.253-.564.565-.564h5.079c.312 0 .565.253.565.565v5.08zm8.964-6.774h-5.079c-.935 0-1.696.76-1.696 1.695v5.08c0 .935.761 1.695 1.696 1.695h5.08c.934 0 1.695-.76 1.695-1.696v-5.08c0-.934-.76-1.695-1.696-1.695zm.637 6.833c0 .319-.26.578-.578.578h-5.196a.579.579 0 0 1-.579-.578v-5.197a.58.58 0 0 1 .579-.578h5.196a.58.58 0 0 1 .578.578v5.197zM9.775 3H4.696C3.761 3 3 3.76 3 4.696v5.079c0 .935.76 1.696 1.696 1.696h5.079c.935 0 1.696-.761 1.696-1.696v-5.08A1.7 1.7 0 0 0 9.775 3zm.565 6.775a.566.566 0 0 1-.565.565H4.696a.566.566 0 0 1-.565-.565v-5.08c0-.31.253-.564.565-.564h5.079c.312 0 .565.253.565.565v5.079zM19.304 3h-5.079c-.935 0-1.696.76-1.696 1.696v5.079c0 .935.761 1.696 1.696 1.696h5.08c.934 0 1.695-.761 1.695-1.696v-5.08C21 3.762 20.24 3 19.304 3zm.588 6.797a.566.566 0 0 1-.566.565h-5.083a.566.566 0 0 1-.566-.565V4.714c0-.312.254-.566.566-.566h5.083c.312 0 .566.254.566.566v5.083z" fill="#4D833F"/>
</svg>
