<svg viewBox="0 0 24 24" xmlns="http://www.w3.org/2000/svg">
    <g fill="none" fill-rule="evenodd">
        <g fill="#4D833F">
            <path d="M23.99 5.385c0-.746-.662-1.35-1.482-1.35H1.488c-.82 0-1.483.604-1.483 1.35v13.23c0 .746.662 1.35 1.482 1.35h21.07c.82 0 1.482-.604 1.433-1.4V5.385z" fill-rule="nonzero"/>
            <path d="M.442 7.263h23.121v2.905H.442z"/>
        </g>
        <path d="M22.928 18.229c0 .459-.254.757-.507.757H1.57c-.307 0-.507-.379-.507-.757-.01-5.226-.01-8.539 0-9.94.011-1.514-.065-2.502 0-2.757.017-.065.028-.326.168-.39.093-.044.283-.085.57-.123h20.292c.326.044.545.113.658.207.113.095.197.315.252.66l-.074 12.343z" fill="#FFF"/>
        <path fill="#4D833F" d="M.442 6.905h23.121v1.52H.442zm3.846 4.737h17.191a.361.361 0 1 1 0 .723H4.288a.361.361 0 1 1 0-.723zm6.18 1.967h4.88a.358.358 0 0 1 0 .715h-4.88a.358.358 0 0 1 0-.715z"/>
    </g>
</svg>
