<?xml version="1.0" encoding="UTF-8"?>
<svg width="40px" height="40px" viewBox="0 0 40 40" version="1.1" xmlns="http://www.w3.org/2000/svg" xmlns:xlink="http://www.w3.org/1999/xlink">
    <!-- Generator: Sketch 48.1 (47250) - http://www.bohemiancoding.com/sketch -->
    <title>Artboard</title>
    <desc>Created with Sketch.</desc>
    <defs>
        <polygon id="path-1" points="0.498874963 0.567560646 23.9038228 0.567560646 23.9038228 15.9519487 0.498874963 15.9519487"></polygon>
    </defs>
    <g id="Page-1" stroke="none" stroke-width="1" fill="none" fill-rule="evenodd">
        <g id="Artboard">
            <path d="M31.5842286,18.1891588 C29.1502004,21.7831772 24.4069659,22.8550774 20.6623072,20.585171 C19.7885535,20.0807475 18.6651559,19.1349532 17.4169363,18 C10.6141395,19.8915885 3,23.296448 3,27.2687841 C3,33.1957616 20.0381974,37.987786 25.9048295,37.987786 C31.7714615,37.987786 36.514696,33.1957616 36.514696,27.2687841 C36.5771069,23.4225539 34.5799556,20.0807475 31.5842286,18.1891588 Z" id="Path" fill="#37A14B"></path>
            <g id="Group" transform="translate(9.000000, 2.000000)">
                <g id="Clipped">
                    <mask id="mask-2" fill="white">
                        <use xlink:href="#path-1"></use>
                    </mask>
                    <g id="bf_soriana_logo-b"></g>
                    <path d="M22.4679526,15.9523971 C22.5303636,15.8262911 22.5927746,15.7001853 22.7175965,15.5740793 C25.0268027,11.7278492 23.8409942,6.683613 19.9715134,4.35065375 C16.1644436,2.01769448 3.18295995,-1.63937678 0.873753712,2.20685335 C-0.936164691,5.17034212 4.18153562,11.7909022 8.36307124,15.7632381 C11.7332641,14.8174439 14.9162241,14.3130203 16.8509644,14.3130203 C18.9105268,14.3130203 20.8452671,14.9435498 22.4679526,15.9523971" id="Shape" fill="#37A14B" fill-rule="nonzero" mask="url(#mask-2)"></path>
                </g>
            </g>
        </g>
    </g>
</svg>