<?xml version="1.0" standalone="no"?>
<!DOCTYPE svg PUBLIC "-//W3C//DTD SVG 20010904//EN"
 "http://www.w3.org/TR/2001/REC-SVG-20010904/DTD/svg10.dtd">
<svg version="1.0" xmlns="http://www.w3.org/2000/svg"
 width="512.000000pt" height="512.000000pt" viewBox="0 0 512.000000 512.000000"
 preserveAspectRatio="xMidYMid meet">
<metadata>
Created by potrace 1.11, written by Peter Selinger 2001-2013
</metadata>
<g transform="translate(0.000000,512.000000) scale(0.100000,-0.100000)"
fill="#000000" stroke="none">
<path d="M0 2560 l0 -2560 2560 0 2560 0 0 2560 0 2560 -2560 0 -2560 0 0
-2560z m2240 1850 c412 -43 1014 -216 1290 -372 290 -164 460 -447 460 -770 0
-163 -38 -304 -118 -441 l-34 -59 24 -16 c73 -51 187 -172 252 -265 141 -208
201 -405 200 -662 -1 -210 -39 -363 -131 -535 -164 -305 -445 -515 -778 -581
-261 -52 -782 30 -1330 208 -523 171 -879 357 -1096 572 -118 119 -169 210
-176 318 -17 231 201 463 645 686 216 109 566 244 785 302 37 10 67 21 67 24
0 4 -21 27 -46 51 -253 245 -534 609 -652 845 -80 159 -105 243 -106 355 -1
85 2 101 27 152 47 96 166 163 327 186 89 13 275 14 390 2z"/>
<path d="M2940 2951 c-188 -27 -563 -107 -607 -130 -8 -4 22 -36 78 -86 196
-173 323 -252 484 -301 80 -24 106 -27 235 -27 129 0 155 3 233 26 165 51 289
127 401 248 36 39 66 77 66 83 0 14 -114 82 -205 122 -178 78 -421 101 -685
65z"/>
</g>
</svg>
